<svg fill="none" xmlns="http://www.w3.org/2000/svg" viewBox="0 0 188 66">
  <g clip-path="url(#_xuqO2-xIx9aa)">
    <path d="M63.054 28.638c-.034-5.304.052-9.665.018-14.838 0-.375 0-1.019-.03-1.82V4.514c-.052-2.087-1.838-3.94-3.83-4C51.868.291 38.315 0 35.3 0l-4.187.03C13.813.154-.117 14.916 0 33.01v.453C.116 51.556 14.234 66.123 31.534 66h.433c11.275-.079 21.145-6.398 26.599-15.804a33.525 33.525 0 003.826-9.98c.488-2.368.726-4.781.71-7.2l-.048-4.378zm-15.32 10.32H31.256a5.591 5.591 0 01-3.859-1.48 5.555 5.555 0 01-1.779-3.72 5.445 5.445 0 011.502-4.048 5.48 5.48 0 013.982-1.698h16.722c.93 0 1.823.368 2.48 1.024a3.492 3.492 0 011.03 2.471v3.862a3.562 3.562 0 01-1.05 2.542 3.587 3.587 0 01-2.55 1.047zm8.971-20.865H33.451a15.48 15.48 0 00-5.913 1.166 15.44 15.44 0 00-5.014 3.333 15.383 15.383 0 00-3.351 4.994 15.34 15.34 0 003.351 16.776 15.439 15.439 0 005.014 3.332 15.478 15.478 0 005.913 1.164h3.91c.893 0 1.751.346 2.395.963a3.44 3.44 0 011.058 2.349c.09 2.367.158 4.776.045 4.926-.285.375-5.6.375-7.863.375h-.33a23.943 23.943 0 01-16.945-6.867 23.781 23.781 0 01-7.11-16.797v-.33A23.783 23.783 0 0115.49 16.6a23.945 23.945 0 0116.834-7.1l3.198-.022c2.3 0 12.651.21 18.248.375a2.99 2.99 0 011.995.825 2.97 2.97 0 01.914 1.95v1.248l.026 4.218zm28.551-9.575a1.29 1.29 0 00.936-.374 1.31 1.31 0 00.375-.933 1.28 1.28 0 00-1.308-1.315h-8.644a1.352 1.352 0 00-.951.375 1.267 1.267 0 00-.41.959v17.314a1.36 1.36 0 00.335.917 1.248 1.248 0 00.89.435h8.8a1.237 1.237 0 00.898-.375 1.325 1.325 0 00.375-.948 1.295 1.295 0 00-.808-1.21 1.307 1.307 0 00-.503-.097h-7.33v-6.072h5.304a1.303 1.303 0 00.943-.375 1.255 1.255 0 00.376-.921 1.297 1.297 0 00-.342-.914 1.233 1.233 0 00-.951-.375h-5.315V8.52h7.33zm17.766 7.384l6.668-7.74a1.246 1.246 0 00.35-.992 1.367 1.367 0 00-.433-.9 1.276 1.276 0 00-.969-.336 1.326 1.326 0 00-.899.434l-6.468 7.492-6.502-7.492a1.35 1.35 0 00-.887-.45 1.236 1.236 0 00-.966.323 1.315 1.315 0 00-.132 1.873l6.74 7.784-6.687 7.788a1.254 1.254 0 00-.376.977 1.366 1.366 0 001.334 1.244h.083a1.258 1.258 0 00.91-.434l6.483-7.545 6.551 7.544a1.266 1.266 0 00.906.431 1.289 1.289 0 00.962-.333 1.25 1.25 0 00.455-.907 1.296 1.296 0 00-.075-.52 1.296 1.296 0 00-.278-.446l-6.77-7.795zm17.053-5.323a7.559 7.559 0 018.194-1.634 7.757 7.757 0 012.529 1.671 1.218 1.218 0 00.936.375c.353-.004.691-.144.943-.39a1.3 1.3 0 00-.022-1.847 10.27 10.27 0 00-3.383-2.266 10.123 10.123 0 00-11.182 2.334 10.326 10.326 0 00-2.522 4.495c-.23.855-.346 1.737-.345 2.622.003.914.13 1.824.376 2.705a10.163 10.163 0 002.604 4.491 9.94 9.94 0 002.056 1.588 10.45 10.45 0 002.432 1.027 9.964 9.964 0 002.699.374 10.6 10.6 0 003.856-.726 9.941 9.941 0 003.405-2.248 1.29 1.29 0 00.376-.921 1.263 1.263 0 00-.828-1.226 1.292 1.292 0 00-.499-.082c-.35 0-.687.133-.939.375a7.142 7.142 0 01-2.511 1.66 7.858 7.858 0 01-2.778.501 7.405 7.405 0 01-5.438-2.247 7.6 7.6 0 01-1.571-2.402 7.568 7.568 0 01.022-5.806 7.549 7.549 0 011.59-2.424zm30.268-2.061a1.29 1.29 0 00.936-.374 1.352 1.352 0 000-1.873 1.27 1.27 0 00-.932-.375h-8.649a1.353 1.353 0 00-.951.375 1.265 1.265 0 00-.406.959v17.314a1.36 1.36 0 00.331.917 1.246 1.246 0 00.891.435h8.802a1.24 1.24 0 00.895-.375 1.317 1.317 0 00.376-.948 1.305 1.305 0 00-1.293-1.307h-7.329v-6.072h5.307a1.292 1.292 0 001.223-.797c.064-.158.096-.328.092-.5a1.285 1.285 0 00-.376-.933 1.207 1.207 0 00-.947-.373h-5.311V8.518h7.341zm18.499 14.748h-7.028V7.196a1.243 1.243 0 00-.376-.944 1.33 1.33 0 00-1.44-.269 1.33 1.33 0 00-.815 1.213v17.392a1.263 1.263 0 00.395.933 1.295 1.295 0 00.935.375h8.393a1.225 1.225 0 00.895-.375 1.32 1.32 0 00.376-.948 1.305 1.305 0 00-1.312-1.307h-.023zm18.775.382a1.262 1.262 0 00-.929-.374h-7.028V7.196a1.276 1.276 0 00-.376-.944 1.342 1.342 0 00-1.879 0 1.251 1.251 0 00-.395.944v17.392a1.247 1.247 0 00.395.933 1.28 1.28 0 00.932.375h8.389a1.22 1.22 0 00.894-.375 1.302 1.302 0 00.376-.948 1.252 1.252 0 00-.379-.925z" fill="#5BAD46"/>
    <path d="M82.313 37.167a1.05 1.05 0 00.751-.322c.199-.199.31-.468.309-.749a1.075 1.075 0 00-.657-1.002 1.055 1.055 0 00-.407-.08h-6.435a1.13 1.13 0 00-.774.295 1.042 1.042 0 00-.334.787v12.905c-.006.275.092.542.274.75a1.025 1.025 0 00.725.374h6.548a1.012 1.012 0 00.751-.311 1.081 1.081 0 00.309-.772 1.056 1.056 0 00-.646-1.009 1.066 1.066 0 00-.414-.085h-5.379v-4.326h3.853a1.077 1.077 0 00.987-.646 1.074 1.074 0 00-.581-1.395.995.995 0 00-.421-.068h-3.838v-4.346h5.379zm17.617-2.161a1.074 1.074 0 00-.779.318 1.057 1.057 0 00-.316.75V45.7L91.71 35.587a.92.92 0 00-.244-.303l-.038-.03a.456.456 0 00-.105-.068l-.049-.026-.083-.068h-.082a1.428 1.428 0 00-.226-.06h-.128a1.08 1.08 0 00-1.075 1.057v12.93a1.03 1.03 0 00.324.75 1.13 1.13 0 001.526 0 1.033 1.033 0 00.32-.75v-9.615l7.174 10.219.12.15a1.084 1.084 0 00.794.322c.067.006.135.006.203 0a1.06 1.06 0 00.627-.375c.167-.192.258-.439.256-.693V36.089a1.075 1.075 0 00-.301-.75 1.03 1.03 0 00-.793-.333zm15.278 2.161a1.049 1.049 0 00.751-.322 1.073 1.073 0 00-.751-1.84h-6.42a1.129 1.129 0 00-.77.297 1.022 1.022 0 00-.335.787v12.904c-.007.275.089.542.271.75a1.032 1.032 0 00.725.374h6.555a1.015 1.015 0 00.752-.31 1.097 1.097 0 00.228-1.182 1.06 1.06 0 00-.991-.658h-5.375v-4.345h3.852a1.07 1.07 0 00.988-.646 1.077 1.077 0 00-.228-1.156 1.017 1.017 0 00-.775-.307h-3.837v-4.346h5.36zm15.808 5.163a4.486 4.486 0 00.684-4.634 4.457 4.457 0 00-.988-1.42 4.67 4.67 0 00-1.47-.94 4.826 4.826 0 00-1.804-.341h-3.781a1.09 1.09 0 00-.997.65 1.029 1.029 0 00-.082.421v12.95a1.04 1.04 0 00.324.749 1.129 1.129 0 001.526 0 1.043 1.043 0 00.319-.75v-5.094h1.785l3.473 5.62a1.097 1.097 0 00.94.546.996.996 0 00.473-.12 1.063 1.063 0 00.616-1.08 1.049 1.049 0 00-.138-.418l-2.977-4.758a4.3 4.3 0 00.943-.411 4.497 4.497 0 001.154-.97zm-1.127-2.893c.001.3-.061.598-.181.873-.12.28-.292.534-.507.75a2.506 2.506 0 01-1.755.7h-2.707v-4.615h2.677a2.66 2.66 0 01.988.18 2.281 2.281 0 011.488 2.124l-.003-.012zm21.424 3.267h-4.259a1.052 1.052 0 00-.752.318 1.08 1.08 0 000 1.499 1.053 1.053 0 00.752.322h2.966c-.12.374-.285.733-.493 1.067a4.385 4.385 0 01-1.037 1.158c-.423.33-.9.583-1.41.75a5.581 5.581 0 01-1.736.258 5.46 5.46 0 01-3.909-1.626 5.63 5.63 0 01-1.176-1.75 5.44 5.44 0 01-.429-2.153 5.357 5.357 0 01.44-2.17 5.538 5.538 0 014.059-3.229 5.567 5.567 0 014.961 1.529c.208.204.487.319.778.318.284-.005.555-.122.752-.325a1.046 1.046 0 00.312-.75.994.994 0 00-.327-.749 7.74 7.74 0 00-2.541-1.712 7.697 7.697 0 00-8.393 1.716 7.72 7.72 0 00-2.21 5.405 7.72 7.72 0 001.03 3.87 7.656 7.656 0 002.74 2.757 7.56 7.56 0 001.842.772 7.746 7.746 0 002.048.27 7.249 7.249 0 002.676-.491 6.919 6.919 0 003.703-3.398 7.234 7.234 0 00.721-2.566.99.99 0 00-.338-.802 1.216 1.216 0 00-.77-.288zm17.868-6.743a1.066 1.066 0 00-.41-.674 1.055 1.055 0 00-1.154-.133 1.008 1.008 0 00-.323.264l-3.92 5.788-3.932-5.78a1.009 1.009 0 00-.751-.375 1.103 1.103 0 00-1.162 1.011c-.023.28.065.557.245.772l4.532 6.555v5.653a1.077 1.077 0 001.286 1.037 1.085 1.085 0 00.787-.63 1.04 1.04 0 00.085-.407v-5.683l4.476-6.551a1.08 1.08 0 00.241-.847zM77.197 62.557l.44-.505a.408.408 0 00.11-.311.374.374 0 00-.144-.285.377.377 0 00-.312-.105.418.418 0 00-.285.146l-.425.495-.816-.75c.189-.089.356-.216.493-.374.183-.227.28-.51.274-.802a1.324 1.324 0 00-.101-.517 1.288 1.288 0 00-.282-.42 1.363 1.363 0 00-.418-.28 1.346 1.346 0 00-1.037 0 1.325 1.325 0 00-.808 1.225c0 .105.015.21.045.31.029.097.068.19.117.278.043.083.095.162.154.236.037.049.077.095.12.139a1.703 1.703 0 00-.406.416 1.42 1.42 0 00-.192.393 1.599 1.599 0 00.41 1.618 1.6 1.6 0 001.154.483c.117 0 .233-.015.346-.045a1.55 1.55 0 00.334-.12c.105-.054.206-.117.3-.187.094-.074.18-.156.26-.243l.136-.158.661.603a.375.375 0 00.316.102.436.436 0 00.352-.293.347.347 0 00.009-.153.438.438 0 00-.162-.278l-.643-.618zm-1.503-2.333a.579.579 0 01-.102.16.815.815 0 01-.18.143.976.976 0 01-.244.101h-.045l-.113-.105a1.404 1.404 0 01-.192-.232.94.94 0 01-.067-.138.299.299 0 01-.023-.113.494.494 0 01.492-.502.48.48 0 01.478.304.523.523 0 01.037.202.495.495 0 01-.037.165l-.004.015zm.353 2.382l-.158.191a1.13 1.13 0 01-.131.109.84.84 0 01-.158.093.878.878 0 01-.173.068.705.705 0 01-.474-.041.876.876 0 01-.255-.18.9.9 0 01-.173-.266.746.746 0 01-.064-.315.691.691 0 01.143-.45c.083-.104.185-.191.3-.258l1.143 1.05zm9.37-3.42a1.647 1.647 0 00-1.124-.442h-1.251a.418.418 0 00-.421.42v4.281a.406.406 0 00.124.3.43.43 0 00.687-.137.406.406 0 00.03-.163v-1.637h.831c.213 0 .423-.04.62-.116a1.565 1.565 0 00.854-.822 1.527 1.527 0 00-.35-1.699v.015zM84.29 60.98h-.835v-1.42h.827a.813.813 0 01.541.203.711.711 0 01.155.22.662.662 0 010 .54.668.668 0 01-.154.225.816.816 0 01-.237.157.776.776 0 01-.29.072l-.007.003zm7.333-1.513a2.715 2.715 0 00-.827-.554 2.662 2.662 0 00-2.342.16 2.63 2.63 0 00-.526.409 2.616 2.616 0 00.526 4.083 2.64 2.64 0 002.639 0c.193-.113.371-.25.53-.408.158-.157.294-.335.405-.528a2.568 2.568 0 00.358-1.315 2.484 2.484 0 00-.207-1.012 2.649 2.649 0 00-.556-.835zm-.08 1.836a1.746 1.746 0 01-1.074 1.629 1.794 1.794 0 01-1.38 0 1.772 1.772 0 01-.556-.375c-.16-.16-.287-.35-.376-.558a1.805 1.805 0 010-1.37 1.774 1.774 0 01.932-.929c.219-.094.454-.141.692-.14a1.7 1.7 0 01.688.14 1.748 1.748 0 011.075 1.602zm8.397-2.525a.403.403 0 00-.323 0 .447.447 0 00-.222.225l-1.477 3.37-.571-1.291.752-1.754a.374.374 0 000-.33.42.42 0 00-.226-.22.403.403 0 00-.323 0 .446.446 0 00-.23.225l-.443 1.019-.436-1.02a.426.426 0 00-.237-.228.398.398 0 00-.315 0 .405.405 0 00-.233.225.395.395 0 000 .326l.751 1.757-.567 1.303-1.466-3.371a.408.408 0 00-.233-.229.376.376 0 00-.312 0 .41.41 0 00-.233.221.373.373 0 000 .33l1.845 4.27a.416.416 0 00.388.263.438.438 0 00.244-.068.405.405 0 00.162-.19l.63-1.458.632 1.457c.033.08.09.146.162.191a.376.376 0 00.214.068.415.415 0 00.237-.06.375.375 0 00.173-.199l1.853-4.274a.408.408 0 00-.226-.55l.03-.008zm4.342.805a.421.421 0 00.3-.72.398.398 0 00-.297-.123h-2.127a.435.435 0 00-.396.256.388.388 0 00-.032.168v4.27a.426.426 0 00.39.427h2.173a.377.377 0 00.289-.124.423.423 0 00.121-.3.405.405 0 00-.124-.292.41.41 0 00-.297-.123h-1.707v-1.304h1.21a.415.415 0 00.297-.12.397.397 0 00.124-.295.39.39 0 00-.12-.293.378.378 0 00-.301-.123h-1.21v-1.304h1.707zm4.983 1.69c.239-.275.372-.626.376-.99a1.53 1.53 0 00-.973-1.423 1.635 1.635 0 00-.62-.12h-1.267a.416.416 0 00-.421.42v4.282a.402.402 0 00.124.3.432.432 0 00.689-.137.415.415 0 00.033-.163v-1.634h.488l1.128 1.832a.43.43 0 00.24.191.477.477 0 00.124 0 .379.379 0 00.185-.045.417.417 0 00.242-.428.419.419 0 00-.058-.164l-.944-1.498c.087-.03.17-.069.248-.116.152-.08.289-.183.406-.307zm-1.229-.296h-.83V59.56h.823a.813.813 0 01.541.202.714.714 0 01.154.221.66.66 0 01.056.273.642.642 0 01-.056.267.624.624 0 01-.154.224.751.751 0 01-.534.214v.015zm7.596.307h-1.409a.426.426 0 00-.417.416.4.4 0 00.12.295.404.404 0 00.297.128h.894a1.743 1.743 0 01-.127.255 1.405 1.405 0 01-.775.61 1.86 1.86 0 01-1.247-.056 1.764 1.764 0 01-.929-2.311 1.771 1.771 0 011.296-1.03 1.78 1.78 0 011.583.487.405.405 0 00.301.123.424.424 0 00.388-.58.37.37 0 00-.099-.135 2.596 2.596 0 00-.86-.58 2.687 2.687 0 00-1.695-.102 2.704 2.704 0 00-.624.266 2.811 2.811 0 00-.527.412 2.524 2.524 0 00-.402.532 2.602 2.602 0 00-.346 1.304 2.631 2.631 0 00.35 1.31c.226.385.547.706.932.933.195.115.405.203.624.263.227.061.46.093.695.093a2.4 2.4 0 002.165-1.322 2.4 2.4 0 00.248-.877.369.369 0 00-.135-.314.477.477 0 00-.301-.12zm4.642-1.701a.413.413 0 00.297-.123.43.43 0 00-.135-.69.4.4 0 00-.162-.03h-2.123a.428.428 0 00-.397.256.42.42 0 00-.032.168v4.27a.422.422 0 00.387.427h2.177a.376.376 0 00.285-.124.423.423 0 00.091-.137.426.426 0 00.029-.162.39.39 0 00-.12-.292.396.396 0 00-.297-.124h-1.71v-1.304h1.214a.419.419 0 00.391-.574.42.42 0 00-.09-.134.378.378 0 00-.301-.123h-1.214v-1.304h1.71zm5.262-.719a.427.427 0 00-.124.3v2.996l-2.255-3.191a.402.402 0 00-.083-.101l-.022-.019-.053-.045-.079-.019h-.127a.421.421 0 00-.391.257.395.395 0 00-.03.163v4.274a.395.395 0 00.124.3.432.432 0 00.593 0 .408.408 0 00.124-.3v-2.997l2.256 3.226.037.048a.421.421 0 00.308.128h.076a.42.42 0 00.345-.413v-4.307a.418.418 0 00-.504-.417.42.42 0 00-.217.117h.022zm6.54 1.199a1.766 1.766 0 012.496 0 .37.37 0 00.3.123.457.457 0 00.305-.127.429.429 0 00.085-.453.414.414 0 00-.093-.135 2.56 2.56 0 00-.864-.577 2.64 2.64 0 00-1.703-.097 2.497 2.497 0 00-.631.273 2.437 2.437 0 00-.523.42 2.57 2.57 0 00-.732 1.794 2.56 2.56 0 00.751 1.835c.156.16.333.297.526.409.195.113.404.2.621.262a2.637 2.637 0 001.672-.094 2.53 2.53 0 00.872-.577.416.416 0 00.12-.292.398.398 0 00-.127-.307.45.45 0 00-.297-.112.441.441 0 00-.297.123 1.693 1.693 0 01-.583.375 1.918 1.918 0 01-.654.116 1.73 1.73 0 01-1.266-.524 1.763 1.763 0 01-.376-.562 1.79 1.79 0 01.003-1.356c.1-.195.233-.37.395-.517zm8.949-.596a2.68 2.68 0 00-.83-.554 2.642 2.642 0 00-1.711-.113 2.622 2.622 0 00-1.556 1.195 2.766 2.766 0 00-.259.618c-.12.453-.12.93 0 1.383.06.217.147.426.259.621.226.387.547.709.933.937a2.641 2.641 0 002.014.262 2.605 2.605 0 001.15-.67 2.576 2.576 0 00.767-1.843 2.532 2.532 0 00-.207-1.012 2.711 2.711 0 00-.56-.824zm-.082 1.836a1.737 1.737 0 01-1.075 1.622 1.788 1.788 0 01-1.376 0 1.76 1.76 0 01-.932-2.304 1.766 1.766 0 013.247 0c.092.215.14.447.139.682h-.003zm5.359-.03a1.544 1.544 0 00-.094-2.086 1.497 1.497 0 00-.507-.323 1.635 1.635 0 00-.62-.12h-1.248a.434.434 0 00-.297.116.41.41 0 00-.128.304v4.281a.416.416 0 00.425.418c.11 0 .217-.042.297-.118a.405.405 0 00.124-.3v-1.637h.492l1.128 1.832c.052.091.136.16.237.191a.519.519 0 00.127 0 .381.381 0 00.181-.045.397.397 0 00.222-.24.421.421 0 00-.034-.352l-.947-1.498c.086-.03.17-.069.248-.116.147-.08.28-.185.394-.307zm-1.229-.296h-.83V59.56h.838a.8.8 0 01.541.202.66.66 0 01.214.494.658.658 0 01-.056.266.734.734 0 01-.154.225.874.874 0 01-.237.157.78.78 0 01-.308.072h-.008zm6.484-1.304a1.566 1.566 0 00-.342-.49 1.503 1.503 0 00-.508-.323 1.631 1.631 0 00-.62-.12h-1.248a.434.434 0 00-.297.116.413.413 0 00-.127.304v4.282a.397.397 0 00.127.3.416.416 0 00.297.12.421.421 0 00.297-.12.422.422 0 00.124-.3v-1.634h.827c.212 0 .423-.039.62-.116.189-.074.361-.183.508-.322a1.471 1.471 0 00.466-1.097c0-.207-.042-.41-.124-.6zm-1.466 1.304h-.831V59.56h.823a.815.815 0 01.542.202.649.649 0 01.21.495.64.64 0 01-.052.265.719.719 0 01-.155.225.854.854 0 01-.537.229z" fill="#7E7E7E"/>
  </g>
  <defs>
    <clipPath id="_xuqO2-xIx9aa">
      <path fill="#fff" d="M0 0h188v66H0z"/>
    </clipPath>
  </defs>
</svg>
