<svg fill="none" xmlns="http://www.w3.org/2000/svg" viewBox="0 0 112 38">
  <path d="M37.564 16.488c-.02-3.053.032-5.564.012-8.542 0-.216 0-.587-.018-1.049V2.6C37.526 1.398 36.463.33 35.276.295 30.901.168 22.826 0 21.03 0l-2.494.017C8.23.088-.069 8.588 0 19.005v.261C.07 29.684 8.48 38.071 18.787 38h.257c6.718-.045 12.598-3.684 15.847-9.1a18.915 18.915 0 002.28-5.745c.29-1.364.432-2.753.422-4.145l-.029-2.522zm-9.126 5.942H18.62a3.397 3.397 0 01-2.299-.851 3.157 3.157 0 01-1.06-2.142 3.038 3.038 0 01.199-1.255c.153-.4.39-.767.696-1.076a3.27 3.27 0 011.082-.724 3.37 3.37 0 011.29-.254h9.962c.555 0 1.086.212 1.478.59.392.377.613.889.614 1.422v2.224a2.017 2.017 0 01-.626 1.464 2.175 2.175 0 01-1.519.602zm5.345-12.013H19.928a9.501 9.501 0 00-3.523.671 9.23 9.23 0 00-2.987 1.92 8.844 8.844 0 00-1.996 2.875 8.575 8.575 0 00-.701 3.392c0 1.164.238 2.317.7 3.392a8.842 8.842 0 001.997 2.874 9.226 9.226 0 002.987 1.92 9.5 9.5 0 003.523.67h2.329c.532 0 1.043.198 1.427.554.384.355.61.84.63 1.352.054 1.363.094 2.75.027 2.836-.17.216-3.336.216-4.684.216h-.197c-3.776.024-7.407-1.399-10.095-3.954-2.687-2.555-4.21-6.033-4.236-9.67v-.19c-.024-3.634 1.45-7.13 4.098-9.718 2.65-2.588 6.256-4.058 10.03-4.087l1.905-.013c1.37 0 7.537.12 10.87.215.445.01.869.18 1.19.475.32.296.514.697.544 1.123v.719l.015 2.428zm11.804 4.279a.556.556 0 01-.378-.179.563.563 0 01-.143-.386V4.143a.497.497 0 01.172-.395.595.595 0 01.415-.15h5.15a.557.557 0 01.396.155.552.552 0 010 .776.527.527 0 01-.396.16h-4.59v3.938h3.383a.524.524 0 01.405.151.536.536 0 01.123.591.557.557 0 01-.528.323H46.2v3.92h4.59a.573.573 0 01.395.156.534.534 0 01.124.593.54.54 0 01-.519.335h-5.203z" fill="#5BAD46"/>
  <path d="M50.814 14.912h-5.242a.767.767 0 01-.53-.246.768.768 0 01-.2-.528V4.143a.706.706 0 01.244-.552.82.82 0 01.567-.216h5.15a.782.782 0 01.555.216.739.739 0 01.224.541.73.73 0 01-.224.537.769.769 0 01-.558.216h-4.366v3.526h3.16a.76.76 0 01.564.216.747.747 0 010 1.068.776.776 0 01-.562.215h-3.171v3.486h4.366a.803.803 0 01.554.219.75.75 0 01.004 1.079.737.737 0 01-.535.218zm-5.218-.432h5.195a.295.295 0 00.224-.086.33.33 0 00.099-.246.291.291 0 00-.096-.228.32.32 0 00-.238-.093h-4.814V9.468h3.607a.348.348 0 00.251-.09.296.296 0 00.094-.216.297.297 0 00-.1-.235.28.28 0 00-.236-.086h-3.605V4.473h4.814a.317.317 0 00.224-.095.315.315 0 00.099-.235.305.305 0 00-.093-.234.33.33 0 00-.24-.096h-5.15a.377.377 0 00-.265.095.297.297 0 00-.099.235v9.988a.352.352 0 00.09.246.31.31 0 00.24.103zm14.736-6.157l4.03-4.51a.57.57 0 01.604-.154.563.563 0 01.373.488.473.473 0 01-.148.404l-4.11 4.604 4.157 4.631a.532.532 0 01.157.401.483.483 0 01-.192.369.566.566 0 01-.409.145.579.579 0 01-.393-.18l-4.069-4.529-4.03 4.53a.532.532 0 01-.383.178.61.61 0 01-.409-.144.567.567 0 01-.198-.373.484.484 0 01.152-.397l4.125-4.63-4.145-4.627a.543.543 0 01-.143-.401.533.533 0 01.197-.38.518.518 0 01.41-.133.574.574 0 01.383.185l4.041 4.523z" fill="#5BAD46"/>
  <path d="M55.88 14.916a.834.834 0 01-.54-.211.776.776 0 01-.256-.505.698.698 0 01.224-.563l3.99-4.482-4.022-4.481a.752.752 0 01-.196-.555.736.736 0 01.275-.524.741.741 0 01.575-.185c.204.018.393.11.529.259l3.873 4.33 3.854-4.313a.797.797 0 01.526-.27.793.793 0 01.578.194.776.776 0 01.219.826.715.715 0 01-.17.264l-3.963 4.455 4.03 4.489a.736.736 0 01.21.556.702.702 0 01-.27.522.775.775 0 01-.574.192.774.774 0 01-.537-.248l-3.903-4.348-3.862 4.348a.747.747 0 01-.54.252l-.05-.002zm4.452-5.26l4.239 4.725a.322.322 0 00.224.104.344.344 0 00.25-.089.307.307 0 00.122-.215.311.311 0 00-.101-.246l-4.281-4.78 4.23-4.744a.283.283 0 00.096-.242.355.355 0 00-.117-.242.3.3 0 00-.237-.08.33.33 0 00-.224.11l-4.2 4.696-4.212-4.706a.351.351 0 00-.224-.114.301.301 0 00-.24.082.316.316 0 00-.123.232.29.29 0 00.087.242l4.268 4.766-4.254 4.771a.277.277 0 00-.099.242.297.297 0 00.119.215.345.345 0 00.373.062.318.318 0 00.101-.075l4.203-4.714zm18.711-4.083a.515.515 0 01-.162.382.605.605 0 01-.41.162.514.514 0 01-.391-.154 4.833 4.833 0 00-1.568-1.013 4.896 4.896 0 00-1.79-.339 4.745 4.745 0 00-3.344 1.32 4.526 4.526 0 00-1.286 2.332 4.42 4.42 0 00.265 2.629c.228.538.561 1.029.98 1.447a4.65 4.65 0 001.485.992 4.69 4.69 0 001.868.369 5.023 5.023 0 001.791-.302 4.494 4.494 0 001.568-1.007.596.596 0 01.405-.16.561.561 0 01.394.142.505.505 0 01.168.39.518.518 0 01-.16.383 5.672 5.672 0 01-1.952 1.252 6.216 6.216 0 01-2.214.404 5.852 5.852 0 01-1.547-.216 5.968 5.968 0 01-1.395-.567 5.585 5.585 0 01-1.18-.863 5.606 5.606 0 01-1.505-2.527 5.452 5.452 0 01.575-4.25c.247-.418.548-.805.896-1.151.34-.353.73-.66 1.155-.914a5.905 5.905 0 013.028-.807 5.93 5.93 0 012.21.431c.728.29 1.388.717 1.941 1.258a.532.532 0 01.175.377z" fill="#5BAD46"/>
  <path d="M74.69 15.024a6.128 6.128 0 01-1.608-.216 6.34 6.34 0 01-1.449-.59 5.885 5.885 0 01-1.224-.915 5.853 5.853 0 01-1.552-2.586 5.594 5.594 0 01-.018-3.067 5.932 5.932 0 012.725-3.535 6.255 6.255 0 013.89-.791 6.154 6.154 0 013.562 1.7.735.735 0 01.25.55.736.736 0 01-.223.53.831.831 0 01-.57.228.745.745 0 01-.557-.215 4.637 4.637 0 00-4.913-.962 4.4 4.4 0 00-2.422 2.32 4.223 4.223 0 00-.014 3.343 4.377 4.377 0 002.352 2.328c.575.24 1.197.359 1.825.349.565 0 1.125-.097 1.654-.29a4.272 4.272 0 001.496-.955.823.823 0 01.56-.215.795.795 0 01.553.2.724.724 0 01.237.552.722.722 0 01-.224.531 5.944 5.944 0 01-2.028 1.294 6.496 6.496 0 01-2.302.412zm.027-11.297a5.738 5.738 0 00-1.552.203 5.739 5.739 0 00-1.362.571 5.491 5.491 0 00-1.12.876 5.453 5.453 0 00-1.403 2.387 5.258 5.258 0 000 2.837 5.4 5.4 0 002.58 3.235 5.84 5.84 0 002.83.742c.73 0 1.454-.133 2.134-.389a5.505 5.505 0 001.876-1.205.316.316 0 00.092-.233.277.277 0 00-.096-.229.31.31 0 00-.24-.084.368.368 0 00-.253.101 4.75 4.75 0 01-1.65 1.05 5.327 5.327 0 01-1.865.318 4.947 4.947 0 01-1.957-.386 4.842 4.842 0 01-2.582-2.55 4.649 4.649 0 01.015-3.679A4.839 4.839 0 0172.79 4.76a4.985 4.985 0 011.919-.373 5.086 5.086 0 013.52 1.42.275.275 0 00.224.09.38.38 0 00.26-.102.317.317 0 00.091-.226.304.304 0 00-.105-.229 5.739 5.739 0 00-1.868-1.21 5.755 5.755 0 00-2.113-.403zm9.641 10.969a.553.553 0 01-.378-.179.553.553 0 01-.143-.386V4.143a.494.494 0 01.17-.395.6.6 0 01.414-.15h5.15a.557.557 0 01.397.155.546.546 0 01-.397.936h-4.59v3.938h3.386a.522.522 0 01.402.151.528.528 0 01-.185.879.572.572 0 01-.218.035H84.97v3.92h4.597a.552.552 0 01.518.33.503.503 0 01.041.206.525.525 0 01-.163.395.505.505 0 01-.396.153h-5.209z" fill="#5BAD46"/>
  <path d="M89.585 14.912H84.34a.77.77 0 01-.531-.246.765.765 0 01-.197-.528V4.143a.703.703 0 01.242-.552.82.82 0 01.566-.216h5.15a.783.783 0 01.555.216.737.737 0 01.163.822.77.77 0 01-.286.34.813.813 0 01-.432.132h-4.366v3.526h3.162a.748.748 0 01.788.753.699.699 0 01-.224.53.77.77 0 01-.56.216h-3.177v3.486h4.373a.805.805 0 01.554.219.75.75 0 01.005 1.079.736.736 0 01-.541.218zm-5.218-.432h5.2a.296.296 0 00.224-.086.324.324 0 00.1-.246.311.311 0 00-.098-.228.335.335 0 00-.238-.093h-4.814V9.468h3.61a.345.345 0 00.248-.09.298.298 0 00.094-.216.308.308 0 00-.098-.235.278.278 0 00-.237-.086h-3.612V4.473h4.82a.317.317 0 00.225-.095.333.333 0 000-.472.32.32 0 00-.238-.093h-5.136a.373.373 0 00-.262.095.297.297 0 00-.099.235v9.988a.35.35 0 00.087.246.31.31 0 00.224.103zm11.81-.877h4.411a.568.568 0 01.395.156.53.53 0 01.162.38.52.52 0 01-.161.395.51.51 0 01-.396.154h-4.976a.565.565 0 01-.527-.332.493.493 0 01-.041-.208V4.143a.504.504 0 01.168-.39.555.555 0 01.4-.156.578.578 0 01.401.156.526.526 0 01.166.39l-.002 9.46z" fill="#5BAD46"/>
  <path d="M100.61 14.912h-4.998a.8.8 0 01-.557-.216.73.73 0 01-.235-.537V4.143a.711.711 0 01.235-.543.813.813 0 01.56-.222c.21 0 .41.08.56.222a.725.725 0 01.223.543v9.244h4.187a.808.808 0 01.554.22.754.754 0 01.004 1.078.726.726 0 01-.533.227zM95.612 3.813a.344.344 0 00-.322.202.3.3 0 00-.023.128v10.014a.293.293 0 00.099.229.335.335 0 00.246.095h4.978a.303.303 0 00.3-.2.334.334 0 00.022-.133.308.308 0 00-.096-.229.33.33 0 00-.237-.092h-4.635V4.143a.297.297 0 00-.099-.235.34.34 0 00-.233-.095zm11.196 9.79h4.411c.148 0 .29.056.394.157.105.1.164.237.164.38a.528.528 0 01-.164.395.502.502 0 01-.394.153h-4.98a.575.575 0 01-.4-.158.512.512 0 01-.166-.382V4.143a.514.514 0 01.166-.39.577.577 0 01.4-.155.57.57 0 01.528.333c.029.067.043.14.041.212v9.46z" fill="#5BAD46"/>
  <path d="M111.242 14.912h-5.003a.797.797 0 01-.555-.216.71.71 0 01-.235-.537V4.143a.713.713 0 01.24-.544.812.812 0 01.559-.22c.21 0 .411.079.56.22a.724.724 0 01.224.543v9.245h4.187a.808.808 0 01.553.22.743.743 0 01.174.827.765.765 0 01-.169.251.726.726 0 01-.535.227zm-5.003-11.099a.345.345 0 00-.244.095.318.318 0 00-.075.107.295.295 0 00-.023.128v10.014a.303.303 0 00.098.229.336.336 0 00.244.094h4.98a.305.305 0 00.311-.199.318.318 0 00.023-.133.312.312 0 00-.097-.229.333.333 0 00-.237-.092h-4.635V4.143a.297.297 0 00-.101-.235.336.336 0 00-.244-.095z" fill="#5BAD46"/>
  <path d="M45.155 28.627a.407.407 0 01-.39-.419v-7.43a.371.371 0 01.128-.295.457.457 0 01.31-.112h3.835a.415.415 0 01.385.25c.02.05.03.103.03.157a.385.385 0 01-.122.287.395.395 0 01-.293.119H45.61v2.922h2.519a.391.391 0 01.3.112.394.394 0 01.091.44.413.413 0 01-.391.242h-2.52v2.922h3.43a.426.426 0 01.293.116.394.394 0 01.12.283.391.391 0 01-.12.294.374.374 0 01-.294.112h-3.883z" fill="#7D7D7D"/>
  <path d="M49.038 28.845h-3.9a.629.629 0 01-.433-.216.621.621 0 01-.163-.431v-7.42a.582.582 0 01.2-.453.687.687 0 01.46-.17h3.836a.649.649 0 01.448.179.619.619 0 01.186.444.599.599 0 01-.184.432.625.625 0 01-.448.185h-3.206v2.491h2.295a.61.61 0 01.645.608.572.572 0 01-.188.432.653.653 0 01-.448.174h-2.304v2.507h3.204a.654.654 0 01.453.178.608.608 0 01.14.676.62.62 0 01-.593.384zm-3.878-.432h3.878a.165.165 0 00.134-.047.192.192 0 00.056-.143.176.176 0 00-.054-.131.187.187 0 00-.136-.054h-3.652v-3.354h2.743a.202.202 0 00.146-.052.166.166 0 00.051-.127.182.182 0 00-.056-.136.155.155 0 00-.132-.047h-2.752v-3.354h3.652a.19.19 0 00.177-.116.182.182 0 00.013-.074.173.173 0 00-.056-.138.168.168 0 00-.134-.054h-3.836a.229.229 0 00-.156.056.163.163 0 00-.056.136v7.43a.21.21 0 00.053.147.165.165 0 00.121.056l-.004.002z" fill="#7E7E7E"/>
  <path d="M54.484 21.999l-.703-.968a.355.355 0 01-.077-.197.457.457 0 01.03-.215.451.451 0 01.123-.17.31.31 0 01.206-.072h.033c.046.009.09.022.132.039h.014a.057.057 0 00.027.015c.01.003.02.01.027.017l.026.013c.015.01.027.02.038.033l.036.038.02.033 4.698 6.438v-6.225a.383.383 0 01.123-.289.423.423 0 01.305-.118.412.412 0 01.298.118.4.4 0 01.118.29v7.449a.388.388 0 01-.096.256.416.416 0 01-.246.136.362.362 0 01-.08 0 .44.44 0 01-.314-.12l-.027-.04-.02-.019L54.484 22v6.224a.37.37 0 01-.123.285.43.43 0 01-.298.114.428.428 0 01-.392-.244.372.372 0 01-.032-.155v-7.44a.369.369 0 01.126-.283.409.409 0 01.298-.116h.033a.55.55 0 01.132.038h.014a.057.057 0 00.027.015c.01.004.02.01.027.018a.039.039 0 01.027.013.374.374 0 01.16.315V22z" fill="#7D7D7D"/>
  <path d="M59.526 28.842a.668.668 0 01-.472-.185l-.072-.086-4.274-5.884v5.54a.576.576 0 01-.19.432.686.686 0 01-.91 0 .595.595 0 01-.192-.431v-7.445a.582.582 0 01.192-.432.655.655 0 01.448-.177h.076c.046.008.09.02.135.035h.049l.049.039.03.015a.27.27 0 01.062.039l.022.017a.54.54 0 01.087.086c.027.025.05.053.07.084l4.254 5.823v-5.534a.588.588 0 01.188-.431.64.64 0 01.464-.183.638.638 0 01.461.187c.115.116.18.27.18.432v7.449a.586.586 0 01-.153.399.636.636 0 01-.374.216.696.696 0 01-.13-.005zm-.143-.478c.04.033.09.05.143.047h.036a.2.2 0 00.121-.065.164.164 0 00.045-.118v-7.45a.183.183 0 00-.056-.14.206.206 0 00-.282 0 .177.177 0 00-.059.136v6.902l-4.623-6.324v.589l4.675 6.423zm-5.52-6.837v6.7a.166.166 0 00.056.13.206.206 0 00.285 0 .162.162 0 00.056-.13V22.07l-.397-.543zm.197-.928a.068.068 0 00-.054.017.216.216 0 00-.064.087.288.288 0 00-.016.116.16.16 0 00.032.084l.302.417v-.537a.183.183 0 00-.014-.072l-.027-.038h-.013l-.045-.041a.486.486 0 00-.074-.024l-.027-.009z" fill="#7E7E7E"/>
  <path d="M64.764 28.627a.407.407 0 01-.282-.132.422.422 0 01-.106-.287v-7.43a.378.378 0 01.126-.295.457.457 0 01.309-.112h3.824a.409.409 0 01.385.25c.021.05.03.103.03.157a.385.385 0 01-.122.287.392.392 0 01-.293.119h-3.417v2.922h2.52a.396.396 0 01.42.4.36.36 0 01-.118.28.418.418 0 01-.303.114h-2.519v2.922h3.417a.407.407 0 01.384.245.371.371 0 01.03.154.389.389 0 01-.12.294.37.37 0 01-.294.112h-3.871z" fill="#7D7D7D"/>
  <path d="M68.65 28.845h-3.904a.638.638 0 01-.594-.647v-7.42a.574.574 0 01.2-.453.687.687 0 01.459-.17h3.824a.649.649 0 01.448.179.62.62 0 01.185.44.62.62 0 01-.185.44.62.62 0 01-.448.185h-3.193v2.491h2.295a.62.62 0 01.462.177.608.608 0 01.135.666.59.59 0 01-.14.197.649.649 0 01-.448.175h-2.304v2.502h3.193a.654.654 0 01.453.178.611.611 0 01.002.88.6.6 0 01-.44.18zm-3.877-.432h3.862a.163.163 0 00.134-.047.19.19 0 00.056-.143.167.167 0 00-.053-.131.184.184 0 00-.137-.052h-3.64v-3.356h2.742a.202.202 0 00.146-.052.166.166 0 00.051-.127.173.173 0 00-.056-.136.156.156 0 00-.132-.047h-2.752v-3.354h3.641a.181.181 0 00.134-.054.187.187 0 00.056-.136.17.17 0 00-.053-.138.172.172 0 00-.137-.054h-3.824a.229.229 0 00-.157.056.163.163 0 00-.054.136v7.43a.211.211 0 00.052.147.172.172 0 00.12.056v.002z" fill="#7E7E7E"/>
  <path d="M78.451 22.732a2.227 2.227 0 01-.568 1.506 2.444 2.444 0 01-.636.506 2.48 2.48 0 01-.804.283l1.941 2.994a.38.38 0 01.034.33.437.437 0 01-.214.227.463.463 0 01-.317.034.427.427 0 01-.246-.19l-2.136-3.35h-1.413v3.156a.37.37 0 01-.123.284.44.44 0 01-.69-.13.373.373 0 01-.031-.154v-7.456a.37.37 0 01.125-.29.435.435 0 01.298-.111h2.25c.34-.003.675.059.99.18.299.114.572.283.804.497.229.213.412.467.54.748.133.296.2.614.197.936zm-4.36-1.561v3.09h1.837c.449.003.88-.164 1.202-.465a1.6 1.6 0 00.345-.503 1.474 1.474 0 000-1.2 1.564 1.564 0 00-.353-.487 1.699 1.699 0 00-.538-.325 1.85 1.85 0 00-.672-.119l-1.82.009z" fill="#7D7D7D"/>
  <path d="M78.008 28.847a.647.647 0 01-.19-.03.648.648 0 01-.37-.285l-2.069-3.235h-1.063v2.94a.58.58 0 01-.19.43.686.686 0 01-.91 0 .598.598 0 01-.192-.43v-7.465a.576.576 0 01.195-.444.66.66 0 01.448-.173h2.25c.368-.002.733.065 1.075.196.324.126.621.31.875.542.25.232.45.51.589.817.198.435.265.916.194 1.386-.071.47-.278.913-.597 1.275-.198.22-.432.407-.694.553-.177.1-.366.18-.562.237l1.778 2.739a.596.596 0 01-.285.863.61.61 0 01-.282.084zm-4.14-3.99h1.762l2.204 3.45a.206.206 0 00.12.1.185.185 0 00.14-.015.187.187 0 00.07-.045.177.177 0 00.043-.07.16.16 0 00-.02-.153l-2.109-3.25.325-.058a2.32 2.32 0 001.31-.719c.336-.38.52-.865.515-1.365a2.017 2.017 0 00-.171-.831 2.083 2.083 0 00-.501-.698 2.336 2.336 0 00-.732-.453 2.518 2.518 0 00-.907-.164h-2.248a.209.209 0 00-.146.054.171.171 0 00-.054.132v7.456a.16.16 0 00.059.13.198.198 0 00.14.055.206.206 0 00.185-.114.157.157 0 00.013-.071l.002-3.371zm2.06-.38h-2.06v-3.522h2.04c.258-.002.514.044.754.134a1.762 1.762 0 011.012.925 1.67 1.67 0 010 1.374c-.094.21-.23.4-.398.56a1.918 1.918 0 01-.602.385 2 2 0 01-.746.144zm-1.612-.431h1.612a1.52 1.52 0 001.046-.404c.128-.124.23-.27.302-.43a1.21 1.21 0 00.107-.503 1.222 1.222 0 00-.11-.522 1.31 1.31 0 00-.304-.419 1.444 1.444 0 00-.465-.282 1.638 1.638 0 00-.59-.104h-1.598v2.664z" fill="#7E7E7E"/>
  <path d="M83.073 24.505c-.004.456.09.907.276 1.326a3.42 3.42 0 001.856 1.797c.435.178.904.267 1.377.263a3.64 3.64 0 001.106-.16 3.02 3.02 0 00.907-.46c.266-.202.494-.446.672-.723a3.1 3.1 0 00.398-.945h-2.062a.412.412 0 01-.417-.408.375.375 0 01.121-.28.396.396 0 01.296-.119h2.537a.5.5 0 01.318.117.345.345 0 01.125.289 3.85 3.85 0 01-.405 1.39 3.853 3.853 0 01-2.09 1.851 4.194 4.194 0 01-1.51.268 4.372 4.372 0 01-2.203-.58 4.266 4.266 0 01-1.555-1.51 4.29 4.29 0 01-.434-1.003 4.119 4.119 0 01-.004-2.22c.195-.7.574-1.34 1.1-1.858.264-.256.558-.48.879-.665a4.478 4.478 0 012.785-.542 4.4 4.4 0 012.537 1.235.371.371 0 01.13.284.407.407 0 01-.123.285.431.431 0 01-.596 0 3.516 3.516 0 00-1.175-.748 3.67 3.67 0 00-2.687.006 3.425 3.425 0 00-1.874 1.786 3.188 3.188 0 00-.285 1.324z" fill="#7D7D7D"/>
  <path d="M86.582 28.927a4.762 4.762 0 01-1.22-.156 4.58 4.58 0 01-1.098-.444 4.49 4.49 0 01-1.639-1.583 4.413 4.413 0 01-.448-1.055 4.362 4.362 0 011.158-4.285c.274-.269.582-.504.916-.7a4.711 4.711 0 012.926-.58 4.632 4.632 0 012.672 1.286.578.578 0 01.009.863.652.652 0 01-.912.004 3.364 3.364 0 00-1.696-.873 3.44 3.44 0 00-1.915.179 3.207 3.207 0 00-1.758 1.673c-.177.395-.266.82-.262 1.25a3.05 3.05 0 00.255 1.24c.164.37.398.71.69.998.305.295.668.53 1.067.688.4.158.83.238 1.262.235.35.003.7-.047 1.034-.149a2.81 2.81 0 00.84-.431c.245-.185.455-.41.618-.667a2.71 2.71 0 00.293-.614h-1.767a.64.64 0 01-.447-.186.605.605 0 01-.183-.431c0-.161.066-.316.183-.431a.616.616 0 01.447-.184h2.537a.741.741 0 01.466.168.566.566 0 01.202.462 4.06 4.06 0 01-2.636 3.433 4.455 4.455 0 01-1.594.29zm0-8.412a4.22 4.22 0 00-2.51.823 3.959 3.959 0 00-1.612 3.174 3.847 3.847 0 00.56 2.012 4.019 4.019 0 001.473 1.43c.309.176.64.31.987.401.36.094.73.141 1.102.14a3.97 3.97 0 001.428-.252 3.617 3.617 0 002.354-3.06.123.123 0 00-.047-.108.275.275 0 00-.18-.063h-2.53a.174.174 0 00-.134.054.17.17 0 00-.058.13.176.176 0 00.058.137.177.177 0 00.134.054h2.345l-.065.265a3.27 3.27 0 01-.426 1.008 3 3 0 01-.72.78 3.323 3.323 0 01-.977.496c-.38.117-.777.174-1.175.17a3.84 3.84 0 01-1.465-.28 3.647 3.647 0 01-1.975-1.91 3.537 3.537 0 010-2.832 3.666 3.666 0 012.019-1.912 3.86 3.86 0 012.831.005c.468.181.893.451 1.25.794a.164.164 0 00.14.058.203.203 0 00.14-.057.188.188 0 00.058-.135.145.145 0 00-.06-.123 4.19 4.19 0 00-1.371-.895 4.25 4.25 0 00-1.58-.297l.006-.007z" fill="#7E7E7E"/>
  <path d="M97.332 24.106l2.503-3.587a.379.379 0 01.276-.138.422.422 0 01.293.093.403.403 0 01.166.259.399.399 0 01-.105.328L97.753 24.9v3.328a.37.37 0 01-.123.284.43.43 0 01-.298.115.423.423 0 01-.295-.115.387.387 0 01-.122-.284v-3.322l-2.745-3.839a.392.392 0 01-.056-.452.417.417 0 01.246-.207.433.433 0 01.325.021c.05.025.094.06.128.103l2.519 3.574z" fill="#7D7D7D"/>
  <path d="M97.332 28.842a.656.656 0 01-.454-.178.61.61 0 01-.186-.436v-3.255l-2.7-3.774a.6.6 0 01-.146-.445.624.624 0 01.222-.427.672.672 0 01.718-.094.6.6 0 01.2.155l2.344 3.336 2.335-3.345a.597.597 0 01.432-.215.643.643 0 01.448.14.591.591 0 01.227.652.626.626 0 01-.128.234l-2.667 3.772v3.264a.578.578 0 01-.193.43.633.633 0 01-.452.186zm-2.84-8.24a.195.195 0 00-.134.049.192.192 0 00-.069.136.17.17 0 00.047.14l.014.017 2.785 3.895v3.389a.16.16 0 00.056.131.197.197 0 00.139.056.201.201 0 00.182-.114.157.157 0 00.013-.071v-3.397l2.751-3.882c.081-.102.072-.153.068-.17a.192.192 0 00-.026-.07.191.191 0 00-.053-.053.215.215 0 00-.145-.052.153.153 0 00-.11.056L97.323 24.5l-2.696-3.848a.163.163 0 00-.114-.052h-.02z" fill="#7E7E7E"/>
  <path d="M43.991 35.858c0-.08.012-.161.036-.24a.798.798 0 01.248-.357 1.16 1.16 0 01.182-.125l-.06-.054h-.012a1.38 1.38 0 01-.092-.1.77.77 0 01-.08-.12.548.548 0 01-.083-.287c0-.088.018-.175.054-.257a.657.657 0 01.358-.355.696.696 0 01.53 0 .66.66 0 01.359.345.66.66 0 01.051.256.596.596 0 01-.139.395.921.921 0 01-.407.257l.696.625.33-.369a.133.133 0 01.093-.05.141.141 0 01.103.035.113.113 0 01.047.09.129.129 0 01-.035.102l-.336.371.463.414a.152.152 0 01.063.093.095.095 0 01-.025.082.156.156 0 01-.096.056.12.12 0 01-.096-.032l-.48-.432-.156.175a.944.944 0 01-.3.222.84.84 0 01-.354.084.88.88 0 01-.795-.509.78.78 0 01-.067-.315zm1.471.17l-.815-.724a.724.724 0 00-.286.216.533.533 0 00-.063.541.585.585 0 00.665.343.579.579 0 00.12-.045.597.597 0 00.11-.063.824.824 0 00.092-.075v-.013l.177-.18zm-.734-1.002l.067-.02a.824.824 0 00.188-.073.546.546 0 00.134-.103.396.396 0 00.076-.417.385.385 0 00-.217-.213.463.463 0 00-.322-.002.396.396 0 00-.249.368c0 .036.007.07.02.104a.564.564 0 00.117.185c.024.026.047.05.067.067l.119.104z" fill="#7D7D7D"/>
  <path d="M44.853 36.797a.98.98 0 01-.9-.58.892.892 0 01-.031-.63.806.806 0 01.114-.227.991.991 0 01.242-.24.855.855 0 01-.233-.375.594.594 0 01-.027-.179.74.74 0 01.063-.297.788.788 0 01.418-.408.826.826 0 01.618 0 .813.813 0 01.249.162.742.742 0 01.228.54.695.695 0 01-.163.46.894.894 0 01-.293.216l.485.432.253-.285a.25.25 0 01.17-.084.232.232 0 01.186.06.217.217 0 01.086.164.226.226 0 01-.065.18l-.262.312.383.343a.25.25 0 01.096.16.192.192 0 01-.05.166.262.262 0 01-.165.09.232.232 0 01-.188-.058l-.388-.356-.08.09c-.048.051-.1.098-.155.14a1.41 1.41 0 01-.179.109.942.942 0 01-.2.069.856.856 0 01-.212.026zm-.045-2.78a.587.587 0 00-.403.16.585.585 0 00-.12.176.522.522 0 00-.045.216c0 .04.006.08.017.118a.74.74 0 00.204.308l.18.167-.13.07a1.036 1.036 0 00-.166.11.865.865 0 00-.128.141.633.633 0 00-.116.386.7.7 0 00.058.278.759.759 0 00.849.425.635.635 0 00.152-.054.897.897 0 00.264-.196l.224-.259.564.498a.025.025 0 00.03-.013l-.025-.025-.538-.505.406-.45a.025.025 0 000-.025l-.027-.023a.037.037 0 00-.02.01l-.406.456-.915-.822.172-.06a.817.817 0 00.358-.216.485.485 0 00.114-.326.522.522 0 00-.16-.386.578.578 0 00-.393-.16zm.034 2.514a.693.693 0 01-.502-.207.704.704 0 01-.148-.215.627.627 0 01-.055-.266.614.614 0 01.132-.392.845.845 0 01.331-.242l.067-.028.947.841-.246.279a.818.818 0 01-.37.21.563.563 0 01-.156.02zm-.224-1.097a.621.621 0 00-.18.148.389.389 0 00-.084.26.417.417 0 00.038.18.52.52 0 00.103.153.522.522 0 00.152.104.434.434 0 00.385-.015.738.738 0 00.172-.117l.095-.11-.681-.603zm.07-.287l-.16-.145a.898.898 0 01-.152-.179.583.583 0 01-.06-.116.379.379 0 01-.027-.14c0-.068.013-.135.04-.197a.483.483 0 01.108-.162.546.546 0 01.58-.108.574.574 0 01.165.11.49.49 0 01.014.69.627.627 0 01-.162.126.864.864 0 01-.224.084l-.123.037zm.118-.863a.293.293 0 00-.208.082.275.275 0 00-.063.093.276.276 0 00-.022.114c0 .022.004.044.013.065a.528.528 0 00.155.213l.067.06h.027a.591.591 0 00.145-.058.484.484 0 00.108-.082.33.33 0 00.06-.092.291.291 0 00-.065-.304.285.285 0 00-.224-.085l.007-.006z" fill="#7E7E7E"/>
  <path d="M49.611 35.485v1.042a.124.124 0 01-.04.095.144.144 0 01-.228-.044.124.124 0 01-.01-.051v-2.465a.12.12 0 01.04-.095.136.136 0 01.1-.039h.745a.862.862 0 01.593.224.771.771 0 01.245.557.763.763 0 01-.51.716.86.86 0 01-.328.06h-.607zm0-1.294v1.023h.61a.63.63 0 00.223-.041.596.596 0 00.175-.113.503.503 0 00.159-.36.468.468 0 00-.043-.2.525.525 0 00-.295-.27.628.628 0 00-.224-.039h-.605z" fill="#7D7D7D"/>
  <path d="M49.472 36.769a.256.256 0 01-.176-.07.233.233 0 01-.074-.172v-2.465a.227.227 0 01.076-.175.253.253 0 01.174-.067h.746c.127 0 .252.023.37.07a.91.91 0 01.42.323.86.86 0 01.088.84.864.864 0 01-.208.288.935.935 0 01-.3.185 1.056 1.056 0 01-.37.067h-.495v.934a.226.226 0 01-.074.172.256.256 0 01-.177.07zm0-2.733a.034.034 0 00-.022 0v2.482l.027.026.027-.026v-1.147h.719a.793.793 0 00.286-.052.757.757 0 00.224-.14.648.648 0 00.087-.859.69.69 0 00-.324-.243.772.772 0 00-.285-.052l-.739.01zm.748 1.294h-.72v-1.253h.716c.09 0 .18.015.264.047a.629.629 0 01.354.326.556.556 0 01-.005.49.617.617 0 01-.14.196.696.696 0 01-.469.188v.006zm-.497-.216h.497c.06 0 .121-.01.177-.032a.489.489 0 00.141-.09.38.38 0 00.092-.13.37.37 0 000-.31.41.41 0 00-.092-.128.501.501 0 00-.322-.116h-.493v.806z" fill="#7E7E7E"/>
  <path d="M54.047 34.019c.168.07.32.171.448.297.13.124.235.27.309.432.076.17.115.353.114.539a1.313 1.313 0 01-.197.703 1.3 1.3 0 01-.224.282 1.488 1.488 0 01-.291.216 1.517 1.517 0 01-1.115.138 1.423 1.423 0 01-.634-.354 1.452 1.452 0 01-.224-.282 1.355 1.355 0 010-1.402 1.423 1.423 0 01.858-.638 1.52 1.52 0 01.385-.05c.197 0 .392.04.571.119zm-1.014.25a1.137 1.137 0 00-.37.237 1.09 1.09 0 000 1.574c.106.102.232.183.37.238a1.204 1.204 0 001.265-.237c.106-.103.19-.224.248-.356a1.072 1.072 0 00-.248-1.219c-.107-.1-.232-.18-.37-.237a1.207 1.207 0 00-.895 0z" fill="#7D7D7D"/>
  <path d="M53.485 36.797a1.634 1.634 0 01-.786-.205 1.555 1.555 0 01-.313-.236 1.67 1.67 0 01-.24-.304 1.455 1.455 0 010-1.51 1.555 1.555 0 01.553-.537 1.637 1.637 0 011.39-.08 1.523 1.523 0 01.826.794c.084.184.126.383.124.583a1.455 1.455 0 01-.213.757 1.45 1.45 0 01-.242.304 1.562 1.562 0 01-.687.386 1.59 1.59 0 01-.412.047zm0-2.78a1.353 1.353 0 00-.94.375 1.38 1.38 0 00-.206.258c-.058.097-.102.2-.133.307a1.248 1.248 0 00.34 1.249 1.319 1.319 0 00.584.328 1.359 1.359 0 001.027-.13c.1-.054.19-.122.27-.2.125-.12.223-.26.29-.417a1.23 1.23 0 00-.005-.988 1.32 1.32 0 00-.71-.681 1.33 1.33 0 00-.517-.102zm0 2.508a1.3 1.3 0 01-.896-.358 1.197 1.197 0 01-.37-.871 1.18 1.18 0 01.37-.865c.116-.112.253-.2.403-.261a1.33 1.33 0 01.742-.075c.25.047.48.163.66.336.115.111.207.243.271.388.068.15.102.313.1.476.002.166-.032.33-.1.483a1.226 1.226 0 01-.676.65c-.158.066-.33.099-.502.097h-.002zm0-2.237a1.052 1.052 0 00-.967.615 1.006 1.006 0 000 .79 1.038 1.038 0 00.966.616c.14 0 .28-.027.41-.08.257-.105.46-.303.564-.552a.979.979 0 00-.23-1.093 1.045 1.045 0 00-.74-.292l-.003-.004z" fill="#7E7E7E"/>
  <path d="M55.88 34.116a.12.12 0 010-.104.148.148 0 01.232-.042.13.13 0 01.03.044l.975 2.179.461-1.023-.479-1.054a.12.12 0 010-.104.139.139 0 01.078-.071.148.148 0 01.108.001c.034.014.061.04.076.072l.363.818.367-.818a.154.154 0 01.076-.073.153.153 0 01.108 0 .15.15 0 01.076.071.123.123 0 010 .104l-.473 1.052.448 1.025.983-2.179a.143.143 0 01.074-.073.153.153 0 01.107 0 .133.133 0 01.074.071.113.113 0 010 .104l-1.101 2.46a.14.14 0 01-.059.065.147.147 0 01-.08.02.126.126 0 01-.072-.022.124.124 0 01-.054-.063l-.479-1.078-.479 1.079a.13.13 0 01-.05.061.138.138 0 01-.078.023.16.16 0 01-.082-.02.13.13 0 01-.054-.064l-1.095-2.461z" fill="#7D7D7D"/>
  <path d="M57.099 36.769a.254.254 0 01-.23-.151l-1.1-2.46a.21.21 0 010-.189.238.238 0 01.139-.127.23.23 0 01.186 0 .243.243 0 01.138.131l.874 1.941.338-.75-.448-1.012a.221.221 0 010-.187.232.232 0 01.139-.13.244.244 0 01.188 0 .256.256 0 01.141.132l.26.587.264-.587a.262.262 0 01.233-.149c.033 0 .066.007.096.02.06.023.108.07.134.127a.208.208 0 010 .19l-.447 1.009.333.753.88-1.942a.262.262 0 01.132-.129.247.247 0 01.193 0 .247.247 0 01.137.131.23.23 0 01-.003.186l-1.104 2.461a.218.218 0 01-.103.114.253.253 0 01-.14.035.23.23 0 01-.128-.039.235.235 0 01-.097-.11l-.376-.839-.376.839a.235.235 0 01-.096.11.268.268 0 01-.157.035zm.618-1.534l.584 1.294.027.02.03-.018 1.112-2.454.03-.132-.043.102c-.025 0-.032 0-.038.017l-1.084 2.405-.578-1.294.49-1.096c0-.024 0-.028-.015-.032-.016-.005-.031 0-.036.02l-.47 1.043-.466-1.048a.034.034 0 00-.015-.015h-.025l-.014.032.49 1.096-.581 1.294-1.077-2.407c0-.013 0-.015-.016-.017-.016-.003-.038 0-.04.017v.015l1.101 2.459.032.019.024-.02.578-1.3z" fill="#7E7E7E"/>
  <path d="M60.845 36.665a.136.136 0 01-.092-.043.136.136 0 01-.035-.095v-2.459a.114.114 0 01.042-.097.138.138 0 01.1-.039h1.266a.139.139 0 01.129.084.13.13 0 01.01.052.13.13 0 01-.04.095.134.134 0 01-.1.039h-1.119v.953h.833a.139.139 0 01.099.037.134.134 0 01.04.095.123.123 0 01-.04.095.147.147 0 01-.099.036h-.833v.967h1.12a.137.137 0 01.098.038.126.126 0 01.04.093.128.128 0 01-.04.097.127.127 0 01-.098.039l-1.28.013z" fill="#7D7D7D"/>
  <path d="M62.133 36.769h-1.295a.254.254 0 01-.17-.082.242.242 0 01-.063-.164v-2.46a.224.224 0 01.079-.176.263.263 0 01.177-.067h1.265a.247.247 0 01.25.243.24.24 0 01-.073.171.26.26 0 01-.18.072h-1.016v.75h.721a.232.232 0 01.18.071.233.233 0 01-.084.39.255.255 0 01-.096.018h-.72v.75h1.016a.244.244 0 01.176.072.235.235 0 01.003.34.225.225 0 01-.17.072zm-1.272-2.733a.037.037 0 00-.025 0v2.478a.03.03 0 000 .024v.114-.108h1.28c.023 0 .028-.015.028-.028l-.027-.024h-1.24v-1.181h.944a.025.025 0 00.02 0l.079-.113-.078.076h-.966v-1.182h1.24l.028-.026-.027-.028-1.256-.002z" fill="#7E7E7E"/>
  <path d="M65.198 34.709a.704.704 0 01-.188.49.828.828 0 01-.477.263l.643.99a.13.13 0 01.011.106.131.131 0 01-.074.079.132.132 0 01-.103 0 .142.142 0 01-.08-.063l-.708-1.106h-.466v1.042a.126.126 0 01-.043.095.144.144 0 01-.227-.044.122.122 0 01-.01-.051v-2.448a.121.121 0 01.04-.095.136.136 0 01.099-.039h.746a.863.863 0 01.593.224.76.76 0 01.244.557zm-1.442-.516v1.023h.607a.628.628 0 00.224-.041.598.598 0 00.174-.112.506.506 0 00.16-.36.467.467 0 00-.043-.201.525.525 0 00-.296-.27.632.632 0 00-.224-.039h-.602z" fill="#7D7D7D"/>
  <path d="M65.05 36.769a.295.295 0 01-.074 0 .257.257 0 01-.143-.11l-.672-1.055h-.29v.934a.232.232 0 01-.077.172.263.263 0 01-.354 0 .233.233 0 01-.074-.172v-2.476a.226.226 0 01.077-.175.253.253 0 01.174-.067h.746a1 1 0 01.37.07.917.917 0 01.351.237.85.85 0 01.013 1.151.926.926 0 01-.387.257l.562.863a.231.231 0 01-.026.281.247.247 0 01-.084.06.23.23 0 01-.112.03zm-1.435-2.733h-.02v2.482l.027.026a.03.03 0 00.022 0v-1.167h.64l.742 1.159s.01.015.017.017h.023c.016-.017.018-.022.011-.035l-.725-1.12.16-.03a.69.69 0 00.225-.08.702.702 0 00.183-.144.65.65 0 00.038-.809.69.69 0 00-.324-.243.772.772 0 00-.285-.052l-.734-.004zm.748 1.294h-.719v-1.253h.714a.718.718 0 01.477.177.608.608 0 01.195.44.585.585 0 01-.192.435.694.694 0 01-.211.136.707.707 0 01-.264.059v.006zm-.495-.216h.495a.457.457 0 00.318-.123.355.355 0 00.091-.13.369.369 0 000-.31.407.407 0 00-.091-.127.47.47 0 00-.323-.116h-.49v.806z" fill="#7E7E7E"/>
  <path d="M66.55 35.295c0 .149.032.295.092.432.057.133.14.254.247.356a1.184 1.184 0 00.817.325 1.16 1.16 0 00.365-.054.931.931 0 00.522-.39.982.982 0 00.132-.313h-.677a.129.129 0 01-.096-.04.125.125 0 01-.04-.095.13.13 0 01.04-.093.13.13 0 01.096-.04h.84a.174.174 0 01.105.04.12.12 0 01.043.095c-.016.16-.062.316-.135.461a1.3 1.3 0 01-1.19.701 1.46 1.46 0 01-1.019-.406 1.356 1.356 0 01-.42-.98 1.377 1.377 0 01.415-.982 1.45 1.45 0 01.634-.356 1.473 1.473 0 01.945.054c.176.072.336.176.47.308a.121.121 0 01.042.095.126.126 0 01-.04.093.143.143 0 01-.151.031.129.129 0 01-.046-.031 1.147 1.147 0 00-.39-.246 1.203 1.203 0 00-1.263.237 1.115 1.115 0 00-.25.356c-.061.14-.091.29-.088.442z" fill="#7D7D7D"/>
  <path d="M67.71 36.797a1.634 1.634 0 01-.786-.205 1.545 1.545 0 01-.555-.537 1.457 1.457 0 01-.154-1.15 1.44 1.44 0 01.152-.356c.065-.112.146-.215.24-.306.094-.09.199-.17.313-.237.117-.066.242-.118.372-.154a1.654 1.654 0 011.01.059c.192.077.366.19.512.334a.216.216 0 01.076.173.23.23 0 01-.071.166.252.252 0 01-.177.073.247.247 0 01-.18-.071 1.098 1.098 0 00-1.155-.216c-.124.05-.238.124-.333.216a.995.995 0 00-.224.321.945.945 0 00-.085.397 1.01 1.01 0 00.638.934c.236.093.499.105.743.032a.82.82 0 00.461-.352.967.967 0 00.077-.146h-.536a.25.25 0 01-.23-.151.23.23 0 01-.018-.093.24.24 0 01.074-.168.258.258 0 01.174-.071h.84a.29.29 0 01.18.065.216.216 0 01.08.18 1.384 1.384 0 01-.898 1.169 1.475 1.475 0 01-.54.093zm0-2.783a1.38 1.38 0 00-.674.177 1.354 1.354 0 00-.268.203 1.257 1.257 0 00-.334 1.244 1.278 1.278 0 00.607.768c.099.057.205.1.316.13.269.07.554.057.815-.037.135-.05.261-.124.371-.216.22-.2.356-.47.383-.759a.049.049 0 00-.04-.017h-.838l-.024.024.024.028h.824l-.03.131c-.03.122-.08.238-.147.345a1.03 1.03 0 01-.248.268c-.1.074-.213.132-.334.17-.294.087-.61.074-.895-.039a1.255 1.255 0 01-.674-.649 1.2 1.2 0 01.275-1.357 1.29 1.29 0 01.648-.33 1.32 1.32 0 011.155.341l.118.076-.08-.074a.033.033 0 000-.021 1.275 1.275 0 00-.448-.302 1.347 1.347 0 00-.504-.104h.002z" fill="#7E7E7E"/>
  <path d="M70.38 36.665a.136.136 0 01-.092-.043.136.136 0 01-.036-.095v-2.459a.114.114 0 01.042-.097.137.137 0 01.101-.039h1.258a.14.14 0 01.1.04.13.13 0 01.037.096.13.13 0 01-.083.124.137.137 0 01-.054.01h-1.12v.953h.836a.139.139 0 01.099.037.133.133 0 01.03.146.126.126 0 01-.03.044.147.147 0 01-.099.036h-.835v.967h1.12a.137.137 0 01.127.08c.007.017.01.034.009.051a.125.125 0 01-.038.097.129.129 0 01-.099.039l-1.274.013z" fill="#7D7D7D"/>
  <path d="M71.667 36.769H70.37a.254.254 0 01-.168-.082.232.232 0 01-.062-.164v-2.46a.224.224 0 01.078-.176.26.26 0 01.177-.067h1.258a.247.247 0 01.177.071.243.243 0 010 .343.246.246 0 01-.177.072h-1.018v.75h.723a.232.232 0 01.179.071.232.232 0 01-.002.339.249.249 0 01-.177.069h-.723v.75h1.018a.243.243 0 01.231.333.239.239 0 01-.054.08.223.223 0 01-.163.07zm-1.272-2.733a.044.044 0 00-.027 0v2.478a.043.043 0 000 .024v.114-.108h1.285c.023 0 .025-.015.025-.028l-.025-.024h-1.242v-1.181h.947a.036.036 0 00.02 0l.078-.113-.08.076h-.965v-1.182h1.242l.025-.026-.025-.028-1.258-.002z" fill="#7E7E7E"/>
  <path d="M73.288 34.47l-.224-.322a.12.12 0 01-.024-.065.154.154 0 01.051-.127.1.1 0 01.067-.024h.011l.045.013h.011l.012.013v.011l1.549 2.127v-2.058a.123.123 0 01.04-.095.138.138 0 01.101-.04.134.134 0 01.139.135v2.463a.12.12 0 01-.034.086.135.135 0 01-.08.046h-.025a.146.146 0 01-.105-.041v-.013l-1.55-2.131v2.057a.125.125 0 01-.04.095.145.145 0 01-.197 0 .127.127 0 01-.04-.095v-2.428a.124.124 0 01.04-.095.136.136 0 01.099-.039h.01l.045.013a.11.11 0 01.039.045c.009.02.013.04.013.06l.047.408z" fill="#7D7D7D"/>
  <path d="M74.958 36.769a.259.259 0 01-.183-.074l-.023-.028-1.343-1.857v1.726a.227.227 0 01-.074.172.263.263 0 01-.354 0 .232.232 0 01-.074-.172v-2.46a.226.226 0 01.074-.172.255.255 0 01.177-.069h.076l.047.011.032.026.013.01c.02.017.036.037.05.059l1.343 1.837v-1.725a.24.24 0 01.074-.172.26.26 0 01.276-.054.25.25 0 01.113.09c.027.04.041.088.04.136v2.463a.232.232 0 01-.06.158.254.254 0 01-.145.08l-.059.015zm-1.567-2.334l1.53 2.103a.034.034 0 00.028.015h.02v-2.48a.022.022 0 000-.022h-.037v2.42l-1.53-2.099-.011.063zm-.273 0v2.092l.027.026a.025.025 0 00.02 0V34.51l-.047-.075zm.013-.388v.026l.034.05-.02-.078-.014.002z" fill="#7E7E7E"/>
  <path d="M80.49 34.416a.133.133 0 01-.039.092.16.16 0 01-.1.041.138.138 0 01-.1-.039 1.2 1.2 0 00-1.276-.243 1.144 1.144 0 00-.37.238 1.096 1.096 0 00-.25 1.22c.056.132.137.254.24.358a1.17 1.17 0 00.824.334 1.2 1.2 0 00.448-.076c.146-.054.28-.138.39-.245a.15.15 0 01.15-.033.135.135 0 01.077.072.135.135 0 01-.028.146 1.455 1.455 0 01-1.028.408c-.129 0-.257-.017-.38-.052a1.423 1.423 0 01-.858-.634 1.347 1.347 0 01.217-1.672 1.51 1.51 0 011.034-.414 1.478 1.478 0 011.023.414.13.13 0 01.025.084z" fill="#7D7D7D"/>
  <path d="M79.419 36.797a1.622 1.622 0 01-.78-.205 1.517 1.517 0 01-.555-.537c-.137-.23-.21-.49-.21-.755a1.468 1.468 0 01.437-1.033 1.515 1.515 0 01.687-.399 1.63 1.63 0 011.014.056c.194.075.369.188.515.332a.235.235 0 01.074.17.243.243 0 01-.07.168.277.277 0 01-.279.058.223.223 0 01-.08-.055 1.055 1.055 0 00-.744-.297 1.084 1.084 0 00-.744.297.984.984 0 00-.226 1.102c.053.12.129.23.224.323.098.098.215.175.345.227a1.181 1.181 0 00.8.009c.13-.049.247-.122.346-.216a.267.267 0 01.354-.007.228.228 0 01.076.177.24.24 0 01-.071.168 1.512 1.512 0 01-.52.332c-.19.064-.392.093-.593.084zm0-2.783c-.124 0-.247.017-.365.05-.114.03-.222.074-.323.134-.097.06-.186.133-.264.215a1.276 1.276 0 00-.331.565 1.262 1.262 0 00.002.669 1.27 1.27 0 00.607.766 1.392 1.392 0 001.173.084 1.27 1.27 0 00.448-.285l.078-.112-.078.078h-.043c-.12.118-.265.21-.425.27a1.39 1.39 0 01-.983-.018 1.26 1.26 0 01-.672-.647 1.194 1.194 0 01.275-1.34 1.321 1.321 0 011.382-.267c.16.064.304.157.426.274h.04v-.032a1.319 1.319 0 00-.448-.287 1.333 1.333 0 00-.493-.117h-.006z" fill="#7E7E7E"/>
  <path d="M83.478 34.019c.169.07.32.17.448.297.132.124.237.27.311.432.077.17.116.353.115.539a1.355 1.355 0 01-.421.985 1.462 1.462 0 01-.638.354 1.45 1.45 0 01-.769 0 1.542 1.542 0 01-.344-.138 1.421 1.421 0 01-.659-.832 1.413 1.413 0 010-.74 1.421 1.421 0 01.37-.61 1.42 1.42 0 01.633-.359 1.447 1.447 0 01.954.071zm-1.016.25a1.117 1.117 0 00-.706 1.024 1.117 1.117 0 00.705 1.024 1.187 1.187 0 001.266-.236c.106-.103.19-.224.248-.356a1.07 1.07 0 000-.863 1.12 1.12 0 00-.23-.354 1.204 1.204 0 00-.817-.326 1.19 1.19 0 00-.466.087z" fill="#7D7D7D"/>
  <path d="M82.916 36.797a1.634 1.634 0 01-.786-.205 1.54 1.54 0 01-.555-.54 1.515 1.515 0 01-.154-.358 1.501 1.501 0 010-.795 1.54 1.54 0 01.154-.356 1.54 1.54 0 01.927-.688 1.607 1.607 0 011.514.384c.14.137.253.297.333.474a1.442 1.442 0 01-.09 1.34 1.517 1.517 0 01-.56.54 1.586 1.586 0 01-.783.203zm0-2.78a1.3 1.3 0 00-.672.175 1.34 1.34 0 00-.268.2 1.224 1.224 0 00-.338.565 1.236 1.236 0 00.132.988c.058.094.127.182.206.26.208.2.48.329.77.365a1.373 1.373 0 001.113-.367c.08-.078.15-.164.208-.258a1.251 1.251 0 00.076-1.145 1.32 1.32 0 00-.71-.682 1.337 1.337 0 00-.517-.102zm0 2.508a1.284 1.284 0 01-.499-.097 1.233 1.233 0 01-.674-.65 1.17 1.17 0 01-.1-.483 1.146 1.146 0 01.1-.476 1.226 1.226 0 01.674-.65 1.335 1.335 0 01.996 0 1.27 1.27 0 01.676.65 1.197 1.197 0 010 .96 1.27 1.27 0 01-1.17.746h-.003zm0-2.237a1.078 1.078 0 00-.743.296.98.98 0 00-.287.907 1.009 1.009 0 00.618.738 1.097 1.097 0 00.82 0c.253-.1.454-.293.56-.537a1.006 1.006 0 000-.79 1.054 1.054 0 00-.224-.318 1.08 1.08 0 00-.336-.216 1.024 1.024 0 00-.405-.076l-.003-.004z" fill="#7E7E7E"/>
  <path d="M87.263 34.709a.747.747 0 01-.05.274.793.793 0 01-.35.384.847.847 0 01-.266.095l.643.99a.118.118 0 01.011.107.13.13 0 01-.123.088.134.134 0 01-.051-.01.14.14 0 01-.083-.063l-.706-1.106h-.468v1.042a.123.123 0 01-.04.095.144.144 0 01-.228-.044.123.123 0 01-.011-.051v-2.448a.13.13 0 01.01-.052.124.124 0 01.032-.043.136.136 0 01.099-.039h.75a.882.882 0 01.593.224.76.76 0 01.244.557h-.006zm-1.443-.516v1.023h.612a.61.61 0 00.224-.041.541.541 0 00.293-.276.47.47 0 00-.002-.397.504.504 0 00-.294-.27.632.632 0 00-.223-.039h-.61z" fill="#7D7D7D"/>
  <path d="M87.117 36.769a.323.323 0 01-.076 0 .245.245 0 01-.141-.11l-.672-1.055h-.293v.934a.227.227 0 01-.074.172.263.263 0 01-.41-.078.229.229 0 01-.02-.094v-2.476a.229.229 0 01.076-.175.263.263 0 01.177-.067h.748a1.002 1.002 0 01.672.257c.086.08.155.176.203.282a.846.846 0 01-.14.921.925.925 0 01-.388.257l.564.863a.238.238 0 01-.03.285.242.242 0 01-.082.055.231.231 0 01-.114.029zm-1.435-2.733a.027.027 0 00-.023 0v2.482l.03.026a.025.025 0 00.02 0v-1.167h.642l.74 1.159a.035.035 0 00.02.017h.022c.015-.017.018-.022 0-.035l-.726-1.12.161-.03a.689.689 0 00.224-.08.69.69 0 00.182-.144.632.632 0 00.16-.43.673.673 0 00-.432-.623.795.795 0 00-.286-.053l-.734-.002zm.745 1.294h-.718v-1.253h.723a.709.709 0 01.477.177c.06.055.108.121.143.194a.573.573 0 01.002.485.617.617 0 01-.14.196.726.726 0 01-.482.195l-.005.006zm-.495-.216h.5a.48.48 0 00.179-.032.417.417 0 00.233-.22.369.369 0 00-.094-.438.45.45 0 00-.141-.084.488.488 0 00-.177-.048h-.49l-.01.822z" fill="#7E7E7E"/>
  <path d="M88.81 35.485v1.042a.122.122 0 01-.04.095.14.14 0 01-.099.039.137.137 0 01-.099-.04.121.121 0 01-.042-.094v-2.465a.115.115 0 01.043-.095.137.137 0 01.099-.039h.742a.882.882 0 01.596.224.744.744 0 01.004 1.108.882.882 0 01-.6.226h-.604zm0-1.294v1.023h.607a.612.612 0 00.224-.041.54.54 0 00.293-.276.488.488 0 00-.002-.397.506.506 0 00-.296-.27.61.61 0 00-.224-.039h-.602z" fill="#7D7D7D"/>
  <path d="M88.671 36.769a.256.256 0 01-.177-.07.235.235 0 01-.076-.172v-2.465a.226.226 0 01.076-.175.263.263 0 01.177-.067h.743a1.001 1.001 0 01.672.255c.086.08.156.176.204.282a.882.882 0 010 .706.882.882 0 01-.204.278.946.946 0 01-.302.185 1.047 1.047 0 01-.37.067h-.492v.934a.242.242 0 01-.074.172.256.256 0 01-.177.07zm0-2.733a.026.026 0 00-.022 0v2.482l.029.026a.025.025 0 00.02 0v-1.167h.716a.776.776 0 00.287-.051.764.764 0 00.224-.14.647.647 0 00.152-.216.608.608 0 00.056-.265.629.629 0 00-.056-.266.708.708 0 00-.152-.215.728.728 0 00-.51-.195l-.744.007zm.746 1.294h-.72v-1.253h.715a.709.709 0 01.477.177c.06.055.109.121.143.194a.607.607 0 010 .485.611.611 0 01-.138.196.725.725 0 01-.477.195v.006zm-.495-.216h.495a.48.48 0 00.179-.032.417.417 0 00.233-.22.36.36 0 00.031-.153.36.36 0 00-.125-.285.5.5 0 00-.322-.117h-.491v.807z" fill="#7E7E7E"/>
</svg>
