<svg fill="none" xmlns="http://www.w3.org/2000/svg" viewBox="0 0 120 43">
  <path d="M40.247 18.34c-.021-3.396.034-6.189.012-9.502 0-.24 0-.652-.019-1.166V2.891C40.207 1.555 39.067.367 37.795.329 33.108.187 24.457 0 22.533 0L19.86.02C8.817.097-.074 9.552 0 21.14v.29c.075 11.59 9.086 20.92 20.13 20.84h.276c7.197-.051 13.497-4.098 16.978-10.122a21.518 21.518 0 002.442-6.392c.311-1.517.463-3.062.453-4.61l-.03-2.805zm-9.778 6.61H19.95a3.563 3.563 0 01-3.598-3.33 3.497 3.497 0 013.5-3.68h10.673a2.24 2.24 0 012.241 2.239v2.473a2.29 2.29 0 01-2.298 2.298zm5.726-13.362H21.352a9.853 9.853 0 00-3.774 18.957 9.85 9.85 0 003.774.746h2.495a2.207 2.207 0 012.205 2.12c.058 1.517.1 3.06.029 3.156-.183.24-3.575.24-5.02.24h-.21A15.255 15.255 0 015.497 21.652v-.212A15.258 15.258 0 0120.633 6.085l2.041-.014c1.468 0 8.075.134 11.648.24a1.905 1.905 0 011.856 1.777v.8l.017 2.7zm12.648 4.759a.578.578 0 01-.405-.199.64.64 0 01-.154-.43V4.609a.57.57 0 01.185-.438.624.624 0 01.444-.168h5.518a.579.579 0 01.424.172.626.626 0 010 .864.564.564 0 01-.424.178h-4.918v4.38h3.625a.542.542 0 01.434.168.597.597 0 01.175.43.564.564 0 01-.175.42.593.593 0 01-.434.167H49.5v4.36h4.918a.594.594 0 01.597.597.603.603 0 01-.366.571.54.54 0 01-.231.038h-5.576z" fill="#5BAD46"/>
  <path d="M54.443 16.587h-5.616a.798.798 0 01-.57-.273.873.873 0 01-.213-.588V4.609a.81.81 0 01.262-.615.861.861 0 01.607-.24h5.518a.81.81 0 01.776.517.823.823 0 01.059.326.839.839 0 01-.24.597.82.82 0 01-.598.24H49.75v3.922h3.385a.786.786 0 01.605.24.833.833 0 01.24.598.803.803 0 01-.24.59.827.827 0 01-.602.24H49.74V14.9h4.679a.83.83 0 01.837.837.851.851 0 01-.24.607.787.787 0 01-.573.242zm-5.59-.48h5.566a.308.308 0 00.24-.096.37.37 0 00.105-.273.337.337 0 00-.103-.254.34.34 0 00-.254-.104h-5.158v-4.848h3.865a.36.36 0 00.268-.1.33.33 0 00.101-.24.344.344 0 00-.108-.262.3.3 0 00-.252-.096h-3.862V4.976h5.158a.328.328 0 00.24-.106.352.352 0 00.105-.261.355.355 0 00-.357-.367h-5.518a.395.395 0 00-.283.105.331.331 0 00-.106.262v11.11a.4.4 0 00.096.273.33.33 0 00.257.115zm15.788-6.849l4.319-5.016a.602.602 0 01.646-.172.574.574 0 01.203.124c.116.11.186.26.197.42a.545.545 0 01-.159.448l-4.404 5.122 4.454 5.15a.592.592 0 01.11.675.555.555 0 01-.148.182.605.605 0 01-.859-.038l-4.359-5.038-4.318 5.038a.572.572 0 01-.41.2.638.638 0 01-.65-.577.557.557 0 01.163-.441l4.419-5.15-4.441-5.147a.61.61 0 01.058-.868.552.552 0 01.439-.15.607.607 0 01.41.207l4.33 5.031z" fill="#5BAD46"/>
  <path d="M59.872 16.592a.875.875 0 01-.854-.796.805.805 0 01.24-.627l4.275-4.985L59.224 5.2a.843.843 0 01.084-1.2.788.788 0 01.617-.206.86.86 0 01.566.288l4.15 4.817L68.77 4.1a.844.844 0 01.564-.3.82.82 0 01.619.216c.16.15.26.356.276.576a.797.797 0 01-.224.636l-4.246 4.956 4.319 4.993a.823.823 0 01.225.619.806.806 0 01-.29.58.823.823 0 01-.615.214.806.806 0 01-.575-.276l-4.182-4.837-4.138 4.837a.801.801 0 01-.578.28l-.053-.002zm4.77-5.851l4.54 5.256a.344.344 0 00.24.115.356.356 0 00.27-.098.337.337 0 00.129-.24.362.362 0 00-.108-.274l-4.587-5.316 4.532-5.278a.314.314 0 00.103-.269.4.4 0 00-.125-.268.319.319 0 00-.254-.089.343.343 0 00-.24.122l-4.5 5.223-4.513-5.235a.372.372 0 00-.24-.127.312.312 0 00-.257.091.348.348 0 00-.132.26.336.336 0 00.093.268l4.573 5.302-4.558 5.307a.319.319 0 00-.106.268.342.342 0 00.127.24.366.366 0 00.27.104.346.346 0 00.24-.118l4.502-5.244zM84.688 6.2a.593.593 0 01-.173.424.636.636 0 01-.439.18.533.533 0 01-.42-.17 5.163 5.163 0 00-1.68-1.128 5.076 5.076 0 00-1.918-.377 4.92 4.92 0 00-1.977.389c-.6.254-1.144.62-1.605 1.08a5.09 5.09 0 00-.043 7.127 4.958 4.958 0 003.591 1.514 5.201 5.201 0 001.92-.336 4.8 4.8 0 001.679-1.12.626.626 0 01.434-.178.584.584 0 01.56.356.561.561 0 01.042.237.597.597 0 01-.17.424 6.057 6.057 0 01-2.092 1.394 6.44 6.44 0 01-2.373.449 6.048 6.048 0 01-1.658-.24 6.265 6.265 0 01-1.494-.631 6.002 6.002 0 01-1.265-.96 6.287 6.287 0 01-1.61-6.053 6.384 6.384 0 011.574-2.766 5.986 5.986 0 011.238-1.017 6.149 6.149 0 013.244-.897 6.151 6.151 0 012.368.48c.78.322 1.487.797 2.08 1.398a.59.59 0 01.187.42z" fill="#5BAD46"/>
  <path d="M80.024 16.712a6.342 6.342 0 01-1.722-.24 6.657 6.657 0 01-1.553-.657 6.476 6.476 0 01-2.325-2.34 6.65 6.65 0 01-.89-3.286c0-.567.074-1.132.221-1.68a6.615 6.615 0 011.61-2.878 6.392 6.392 0 011.31-1.054 6.497 6.497 0 017.984 1.01.815.815 0 01.269.612.835.835 0 01-.24.59.873.873 0 01-.61.255.773.773 0 01-.597-.24 4.954 4.954 0 00-1.602-1.07 4.798 4.798 0 00-6.257 2.581 4.863 4.863 0 00.988 5.257 4.715 4.715 0 003.471 1.44 4.998 4.998 0 001.773-.322 4.557 4.557 0 001.603-1.063.864.864 0 01.6-.24.824.824 0 01.786.503c.044.105.064.22.06.334a.83.83 0 01-.24.59 6.343 6.343 0 01-2.173 1.44 6.733 6.733 0 01-2.466.458zm.029-12.566a5.935 5.935 0 00-3.121.86c-.441.272-.844.6-1.2.975a6.119 6.119 0 00-1.504 2.656 6.065 6.065 0 000 3.154c.14.504.342.988.604 1.44a5.94 5.94 0 002.16 2.16 6.18 6.18 0 001.439.606 5.872 5.872 0 001.593.218c.782 0 1.558-.147 2.286-.431a5.877 5.877 0 002.01-1.342.353.353 0 00.1-.259.32.32 0 00-.104-.254.333.333 0 00-.257-.094.38.38 0 00-.27.113 5.07 5.07 0 01-1.769 1.169c-.639.24-1.316.36-1.998.352a5.131 5.131 0 01-2.097-.43 5.312 5.312 0 01-1.665-1.156 5.397 5.397 0 01-1.101-1.679 5.353 5.353 0 01.016-4.093 5.278 5.278 0 016.874-2.833c.66.273 1.26.675 1.766 1.18a.294.294 0 00.24.101c.103 0 .203-.04.278-.113a.354.354 0 00-.015-.506 6.13 6.13 0 00-2-1.346 5.967 5.967 0 00-2.265-.448zm10.33 12.201a.572.572 0 01-.405-.199.628.628 0 01-.154-.43V4.609a.568.568 0 01.183-.438.629.629 0 01.443-.168h5.518a.578.578 0 01.425.172.62.62 0 01-.194.998.564.564 0 01-.23.044H91.05v4.38h3.627a.54.54 0 01.432.168.588.588 0 01.175.43.557.557 0 01-.175.42.59.59 0 01-.431.167h-3.64v4.36h4.925a.572.572 0 01.425.175.58.58 0 01.175.422.605.605 0 01-.368.571.54.54 0 01-.232.038h-5.58z" fill="#5BAD46"/>
  <path d="M95.983 16.587h-5.619a.8.8 0 01-.569-.273.87.87 0 01-.21-.588V4.609a.809.809 0 01.258-.615.861.861 0 01.607-.24h5.518a.81.81 0 01.819.672.85.85 0 01-.819 1.008H91.29v3.922h3.388a.775.775 0 01.604.24.832.832 0 01.24.598.805.805 0 01-.24.59.821.821 0 01-.6.24h-3.404V14.9h4.685a.832.832 0 01.84.837.842.842 0 01-.505.789.787.787 0 01-.315.06zm-5.59-.48h5.57a.308.308 0 00.24-.096.363.363 0 00.108-.273.358.358 0 00-.36-.357h-5.157v-4.85h3.867a.355.355 0 00.341-.21.33.33 0 00.026-.13.351.351 0 00-.106-.261.297.297 0 00-.254-.096h-3.87V4.976h5.165a.328.328 0 00.24-.106.377.377 0 000-.525.34.34 0 00-.254-.103h-5.503a.386.386 0 00-.281.105.331.331 0 00-.106.262v11.11c-.004.1.03.197.094.273a.33.33 0 00.24.115zm12.653-.976h4.726a.599.599 0 01.552.368.6.6 0 01.045.23.608.608 0 01-.366.57.548.548 0 01-.231.039h-5.331a.586.586 0 01-.429-.175.556.556 0 01-.18-.425V4.608a.579.579 0 01.18-.434.587.587 0 01.429-.172.602.602 0 01.564.371c.03.075.045.155.043.236l-.002 10.522z" fill="#5BAD46"/>
  <path d="M107.796 16.587h-5.355a.828.828 0 01-.597-.24.805.805 0 01-.252-.597V4.609a.822.822 0 01.252-.605.852.852 0 011.383.277c.041.104.06.216.056.328V14.89h4.486a.835.835 0 01.838.837.853.853 0 01-.499.793.784.784 0 01-.312.066zm-5.355-12.345a.356.356 0 00-.264.105.342.342 0 00-.105.262v11.139a.328.328 0 00.105.254.368.368 0 00.264.105h5.333a.307.307 0 00.24-.096.371.371 0 00.106-.273.346.346 0 00-.104-.254.343.343 0 00-.254-.103h-4.966V4.608a.33.33 0 00-.025-.142.33.33 0 00-.081-.12.356.356 0 00-.249-.105zm11.995 10.889h4.727a.597.597 0 01.597.597.603.603 0 01-.368.571.533.533 0 01-.229.039h-5.336a.594.594 0 01-.429-.175.572.572 0 01-.178-.425V4.608a.594.594 0 01.607-.606.593.593 0 01.429.172.574.574 0 01.18.435V15.13z" fill="#5BAD46"/>
  <path d="M119.187 16.587h-5.36a.826.826 0 01-.595-.24.8.8 0 01-.252-.597V4.609a.81.81 0 01.257-.605.854.854 0 011.199 0 .802.802 0 01.24.605V14.89h4.487a.826.826 0 01.592.245.833.833 0 01.245.592.853.853 0 01-.5.794.781.781 0 01-.313.065zm-5.36-12.345a.361.361 0 00-.367.367v11.139a.345.345 0 00.025.138.367.367 0 00.342.221h5.336a.31.31 0 00.251-.096.372.372 0 00.106-.273.362.362 0 00-.103-.254.357.357 0 00-.254-.104h-4.967V4.61a.327.327 0 00-.108-.261.338.338 0 00-.261-.106z" fill="#5BAD46"/>
  <path d="M48.38 31.843a.423.423 0 01-.302-.146.48.48 0 01-.115-.32v-8.264a.427.427 0 01.136-.329.48.48 0 01.332-.125h4.11a.427.427 0 01.314.13.438.438 0 01.13.324.446.446 0 01-.445.45h-3.673v3.252h2.7a.405.405 0 01.32.124.438.438 0 01.13.32.416.416 0 01-.13.311.44.44 0 01-.32.127h-2.7v3.251h3.673a.439.439 0 01.444.444.448.448 0 01-.273.424.398.398 0 01-.17.027h-4.16z" fill="#fff"/>
  <path d="M52.54 32.085h-4.179a.654.654 0 01-.463-.24.706.706 0 01-.175-.48v-8.252a.666.666 0 01.213-.504.72.72 0 01.495-.19h4.11a.67.67 0 01.628.427.692.692 0 01.05.267.68.68 0 01-.197.48.67.67 0 01-.48.206h-3.435v2.77h2.46a.635.635 0 01.493.198.688.688 0 01.146.74.686.686 0 01-.63.413h-2.469v2.788h3.433a.678.678 0 01.684.684.693.693 0 01-.419.646.642.642 0 01-.265.047zm-4.155-.48h4.155a.17.17 0 00.144-.052.214.214 0 00.06-.159.202.202 0 00-.204-.206h-3.913v-3.73h2.94a.21.21 0 00.155-.058.184.184 0 00.055-.142.208.208 0 00-.06-.15.161.161 0 00-.141-.054h-2.949v-3.73h3.913a.197.197 0 00.144-.06.208.208 0 00.06-.151.2.2 0 00-.06-.154.18.18 0 00-.144-.06h-4.11a.24.24 0 00-.167.063.183.183 0 00-.06.15v8.266a.24.24 0 00.057.163.176.176 0 00.13.062l-.005.002zm9.99-7.135l-.754-1.077a.404.404 0 01-.081-.218.502.502 0 01.163-.43.324.324 0 01.22-.078h.037c.048.01.096.024.141.043h.015a.06.06 0 00.028.016c.012.004.022.01.03.02l.028.014a.19.19 0 01.04.036l.04.043.02.036 5.034 7.161v-6.923a.44.44 0 01.132-.322.453.453 0 01.326-.132.426.426 0 01.32.132.454.454 0 01.126.322v8.286a.441.441 0 01-.367.437.377.377 0 01-.086 0 .458.458 0 01-.336-.135l-.029-.043-.021-.021-5.026-7.166v6.923a.426.426 0 01-.132.317.45.45 0 01-.32.127.444.444 0 01-.419-.271.428.428 0 01-.034-.173v-8.276a.423.423 0 01.135-.315.436.436 0 01.319-.13h.036a.575.575 0 01.141.044h.015a.06.06 0 00.028.017.06.06 0 01.03.019.04.04 0 01.015.004.413.413 0 01.14.161c.03.062.046.13.046.2v1.353z" fill="#fff"/>
  <path d="M63.778 32.083a.692.692 0 01-.507-.206l-.077-.096-4.58-6.545v6.163a.662.662 0 01-.203.48.72.72 0 01-.974 0 .661.661 0 01-.207-.48v-8.282a.671.671 0 01.207-.48.689.689 0 01.48-.196h.081a.918.918 0 01.144.038h.053l.053.044.03.016a.29.29 0 01.068.043l.024.02a.59.59 0 01.094.096.46.46 0 01.074.093l4.558 6.478v-6.156a.676.676 0 01.202-.48.684.684 0 01.496-.204.663.663 0 01.495.209c.123.129.192.3.191.48v8.286a.667.667 0 01-.163.444.677.677 0 01-.4.24.719.719 0 01-.14-.005zm-.154-.533a.213.213 0 00.154.053h.038a.21.21 0 00.13-.072.187.187 0 00.047-.132v-8.286a.212.212 0 00-.06-.156.216.216 0 00-.35.069.197.197 0 00-.014.082v7.677l-4.954-7.034v.655l5.009 7.144zm-5.914-7.605V31.4a.19.19 0 00.06.144.216.216 0 00.305 0 .18.18 0 00.06-.144v-6.85l-.425-.604zm.211-1.031a.072.072 0 00-.057.019.239.239 0 00-.07.096.333.333 0 00-.017.13.181.181 0 00.034.093l.324.463v-.598a.212.212 0 00-.014-.079l-.03-.043h-.014l-.048-.045a.5.5 0 00-.079-.027l-.029-.01zm11.468 8.929a.423.423 0 01-.302-.146.48.48 0 01-.113-.32v-8.264a.435.435 0 01.134-.329.48.48 0 01.331-.125h4.098a.423.423 0 01.314.13.44.44 0 01.13.324.446.446 0 01-.13.319.42.42 0 01-.314.132h-3.661v3.25h2.699a.409.409 0 01.324.125.44.44 0 01.127.32.415.415 0 01-.127.311.445.445 0 01-.324.127h-2.7v3.251h3.662a.421.421 0 01.314.127.433.433 0 01.13.317.448.448 0 01-.273.424.396.396 0 01-.171.027h-4.148z" fill="#fff"/>
  <path d="M73.554 32.085H69.37a.665.665 0 01-.463-.24.703.703 0 01-.173-.48v-8.252a.659.659 0 01.214-.504.72.72 0 01.491-.19h4.098a.67.67 0 01.48.2.703.703 0 01-.22 1.13.665.665 0 01-.26.055h-3.421v2.77h2.459a.643.643 0 01.494.197.688.688 0 01.146.74.681.681 0 01-.63.413h-2.47v2.784h3.422a.678.678 0 01.684.684.695.695 0 01-.412.642.643.643 0 01-.255.051zm-4.156-.48h4.139a.167.167 0 00.144-.052.214.214 0 00.06-.159.19.19 0 00-.058-.146.194.194 0 00-.146-.058h-3.901v-3.733h2.939a.21.21 0 00.156-.057.184.184 0 00.055-.142.2.2 0 00-.06-.15.16.16 0 00-.141-.054h-2.949v-3.73h3.9a.188.188 0 00.145-.06.208.208 0 00.06-.151.196.196 0 00-.058-.154.186.186 0 00-.146-.06h-4.098a.24.24 0 00-.168.063.183.183 0 00-.057.15v8.266a.24.24 0 00.055.163.181.181 0 00.13.062v.002zm14.657-6.319c.002.312-.053.622-.161.914a2.515 2.515 0 01-.449.76 2.64 2.64 0 01-1.542.879l2.08 3.33a.434.434 0 01.035.367.48.48 0 01-.568.29.46.46 0 01-.264-.211l-2.289-3.726h-1.514v3.51a.426.426 0 01-.132.317.463.463 0 01-.738-.144.428.428 0 01-.034-.173v-8.294a.425.425 0 01.134-.321.456.456 0 01.32-.125h2.41a2.779 2.779 0 011.922.754c.245.237.442.52.578.832.143.328.215.683.212 1.041zm-4.672-1.737v3.438h1.968c.48.003.943-.183 1.288-.518a1.777 1.777 0 00.506-1.226c0-.23-.046-.456-.136-.667a1.74 1.74 0 00-.38-.542 1.81 1.81 0 00-.575-.362 1.917 1.917 0 00-.72-.132l-1.95.01z" fill="#fff"/>
  <path d="M83.58 32.088a.698.698 0 01-.6-.35l-2.217-3.6h-1.14v3.27a.668.668 0 01-.204.48.72.72 0 01-.974 0 .665.665 0 01-.206-.48v-8.303a.66.66 0 01.209-.494.693.693 0 01.48-.192h2.41c.395-.001.786.073 1.152.219.348.14.666.344.938.602.268.259.482.568.631.91a2.826 2.826 0 01-.432 2.96 2.878 2.878 0 01-.743.614c-.19.111-.392.2-.603.264l1.905 3.046a.68.68 0 01-.304.96.636.636 0 01-.303.094zm-4.436-4.439h1.888l2.36 3.839a.223.223 0 00.13.11.192.192 0 00.149-.017.198.198 0 00.122-.127.184.184 0 00-.022-.17l-2.26-3.615.348-.065a2.427 2.427 0 001.404-.8c.36-.422.557-.962.551-1.518a2.316 2.316 0 00-.72-1.7 2.487 2.487 0 00-.784-.505 2.61 2.61 0 00-.971-.182H78.93a.218.218 0 00-.156.06.19.19 0 00-.058.146V31.4a.182.182 0 00.063.144.212.212 0 00.233.046.213.213 0 00.07-.046.179.179 0 00.06-.144l.002-3.75zm2.207-.422h-2.207V23.31h2.185c.277-.002.55.049.809.15a1.946 1.946 0 011.084 1.028 1.92 1.92 0 010 1.529 2.006 2.006 0 01-1.072 1.05c-.254.106-.525.16-.8.161zm-1.728-.48h1.728c.418.003.82-.158 1.12-.448.137-.138.247-.301.324-.48.077-.177.116-.367.115-.56a1.396 1.396 0 00-.117-.58 1.455 1.455 0 00-.826-.78 1.695 1.695 0 00-.63-.115h-1.714v2.963zm9.383.511c-.004.507.097 1.01.295 1.476a3.73 3.73 0 003.465 2.29c.401.005.802-.055 1.185-.177a3.19 3.19 0 00.971-.513c.286-.223.53-.495.72-.804.198-.325.342-.68.427-1.05h-2.21a.425.425 0 01-.316-.135.44.44 0 01-.13-.319.432.432 0 01.13-.312.426.426 0 01.316-.132h2.719a.525.525 0 01.34.13.384.384 0 01.135.321 4.405 4.405 0 01-.435 1.548 4.184 4.184 0 01-2.238 2.058 4.348 4.348 0 01-1.62.297 4.626 4.626 0 01-1.244-.165 4.591 4.591 0 01-1.116-.48 4.655 4.655 0 01-2.13-2.795 4.746 4.746 0 01-.005-2.469 4.71 4.71 0 011.18-2.067c.282-.285.598-.533.94-.74a4.65 4.65 0 015.703.77.411.411 0 01.14.317.454.454 0 01-.77.317 3.755 3.755 0 00-1.26-.832 3.808 3.808 0 00-1.44-.281 3.668 3.668 0 00-1.44.288 3.733 3.733 0 00-2.007 1.986 3.661 3.661 0 00-.305 1.473z" fill="#fff"/>
  <path d="M92.766 32.176a4.927 4.927 0 01-1.308-.172 4.897 4.897 0 01-2.932-2.255 5.01 5.01 0 01-.48-1.174 4.954 4.954 0 010-2.593 4.894 4.894 0 011.24-2.174c.294-.298.624-.56.982-.777a4.892 4.892 0 015.998.785.64.64 0 01.209.48.677.677 0 01-.2.48.686.686 0 01-.48.208.706.706 0 01-.496-.204 3.561 3.561 0 00-3.87-.773 3.496 3.496 0 00-2.164 3.251c-.003.474.09.943.274 1.38.175.413.426.79.739 1.11a3.477 3.477 0 002.495 1.027c.376.004.75-.052 1.108-.165.326-.107.63-.27.9-.48a2.8 2.8 0 00.662-.741 3.09 3.09 0 00.314-.684h-1.893a.66.66 0 01-.48-.206.686.686 0 01.48-1.164h2.718c.184.002.36.068.5.187a.628.628 0 01.215.514 4.646 4.646 0 01-.46 1.643 4.421 4.421 0 01-2.363 2.176 4.619 4.619 0 01-1.709.321zm0-9.356a4.409 4.409 0 00-4.264 3.282 4.491 4.491 0 00.447 3.402 4.389 4.389 0 002.637 2.037 4.46 4.46 0 001.18.156 4.115 4.115 0 001.53-.281 3.927 3.927 0 002.111-1.943c.227-.457.366-.953.41-1.461a.141.141 0 00-.05-.12.288.288 0 00-.192-.07h-2.71a.179.179 0 00-.145.06.19.19 0 00-.062.144.202.202 0 00.062.154.189.189 0 00.144.06h2.512l-.07.295a3.73 3.73 0 01-.455 1.12 3.306 3.306 0 01-.773.868 3.514 3.514 0 01-1.046.552c-.407.13-.832.194-1.26.19a3.983 3.983 0 01-1.568-.312 3.978 3.978 0 01-2.116-2.126 4.063 4.063 0 010-3.15 3.994 3.994 0 015.196-2.12c.501.2.956.501 1.339.882a.175.175 0 00.15.065.214.214 0 00.212-.213.161.161 0 00-.065-.137 4.48 4.48 0 00-1.468-.996 4.408 4.408 0 00-1.694-.33l.008-.008zm11.517 3.994l2.683-3.99a.398.398 0 01.295-.153.44.44 0 01.314.103c.094.07.158.173.178.288a.474.474 0 01-.113.365l-2.905 4.27V31.4a.425.425 0 01-.132.317.454.454 0 01-.32.127.443.443 0 01-.414-.272.439.439 0 01-.032-.172v-3.695l-2.941-4.27a.453.453 0 01-.088-.153.453.453 0 01-.02-.175.455.455 0 01.66-.381.42.42 0 01.137.114l2.698 3.976z" fill="#fff"/>
  <path d="M104.283 32.083a.68.68 0 01-.686-.684v-3.62l-2.893-4.198a.682.682 0 01-.156-.495.705.705 0 011.007-.58.65.65 0 01.214.172l2.512 3.712 2.502-3.721a.65.65 0 01.463-.24.671.671 0 01.48.156c.139.105.233.26.262.432a.695.695 0 01-.156.554l-2.858 4.196v3.63a.651.651 0 01-.206.48.681.681 0 01-.485.206zm-3.042-9.167a.205.205 0 00-.144.055.215.215 0 00-.074.151.201.201 0 00.05.156l.015.02 2.984 4.332v3.77a.183.183 0 00.014.079c.01.025.026.048.046.066a.211.211 0 00.298 0 .176.176 0 00.046-.065.178.178 0 00.014-.079v-3.778l2.948-4.318c.087-.113.077-.17.072-.19a.21.21 0 00-.027-.077.205.205 0 00-.057-.06.225.225 0 00-.156-.057.16.16 0 00-.117.062l-2.879 4.27-2.889-4.28a.176.176 0 00-.122-.058h-.022zM47.133 39.887c0-.09.013-.18.038-.266a.888.888 0 01.266-.399c.06-.052.126-.099.195-.139l-.065-.06h-.012a1.521 1.521 0 01-.098-.11.854.854 0 01-.087-.134.63.63 0 01-.089-.319c0-.099.02-.196.058-.286a.735.735 0 01.156-.24.72.72 0 01.797-.156.706.706 0 01.438.67.68.68 0 01-.148.439.983.983 0 01-.437.285l.746.696.353-.41a.145.145 0 01.1-.056.147.147 0 01.111.039.13.13 0 01.05.1.149.149 0 01-.038.113l-.36.413.497.46a.17.17 0 01.067.104.11.11 0 01-.026.09.166.166 0 01-.104.063.126.126 0 01-.103-.036l-.513-.48-.168.195a1.026 1.026 0 01-.509.316.9.9 0 01-.192.024.91.91 0 01-.36-.074.947.947 0 01-.491-.492.896.896 0 01-.072-.35zm1.576.19l-.873-.806a.779.779 0 00-.307.24.613.613 0 00-.067.602.641.641 0 00.575.4.607.607 0 00.266-.07.633.633 0 00.118-.069.893.893 0 00.098-.084v-.014l.19-.2zm-.787-1.116l.072-.022a.864.864 0 00.202-.081.586.586 0 00.143-.115.44.44 0 00.113-.29.452.452 0 00-.122-.315.45.45 0 00-.142-.096.482.482 0 00-.345-.002.42.42 0 00-.233.237.453.453 0 00-.033.173c0 .04.007.078.021.115a.646.646 0 00.125.207c.026.028.05.055.072.074l.127.115z" fill="#fff"/>
  <path d="M48.056 40.93a1.016 1.016 0 01-.736-.309 1.026 1.026 0 01-.262-1.036.912.912 0 01.123-.252 1.095 1.095 0 01.259-.267.958.958 0 01-.175-.24.891.891 0 01-.075-.177.688.688 0 01-.029-.199.848.848 0 01.248-.602.844.844 0 011.441.597.792.792 0 01-.175.514.96.96 0 01-.314.24l.52.48.272-.317a.268.268 0 01.182-.094.238.238 0 01.2.067.242.242 0 01.09.183.262.262 0 01-.07.199l-.28.348.41.381a.28.28 0 01.103.178.224.224 0 01-.052.184.279.279 0 01-.178.101.24.24 0 01-.201-.065l-.415-.396-.087.101a1.462 1.462 0 01-.165.156 1.468 1.468 0 01-.192.12.988.988 0 01-.214.077.88.88 0 01-.228.029zm-.048-3.092a.608.608 0 00-.431.178.654.654 0 00-.13.197.6.6 0 00-.048.24c0 .044.007.088.02.131a.817.817 0 00.218.343l.191.185-.139.08a1.108 1.108 0 00-.177.122.958.958 0 00-.137.156.719.719 0 00-.125.429c0 .106.021.212.063.31a.828.828 0 00.43.429.742.742 0 00.642-.017.96.96 0 00.283-.218l.24-.288.605.554a.027.027 0 00.018-.001.026.026 0 00.013-.013l-.027-.03-.575-.56.434-.502a.03.03 0 000-.026l-.029-.027a.038.038 0 00-.022.012l-.434.507-.981-.915.185-.067a.868.868 0 00.384-.24.551.551 0 00.122-.362.6.6 0 00-.593-.607zm.036 2.797a.719.719 0 01-.297-.062.762.762 0 01-.398-.408.72.72 0 01-.06-.295.7.7 0 01.141-.436.907.907 0 01.355-.27l.072-.03 1.015.935-.264.31a.876.876 0 01-.396.235.584.584 0 01-.168.022zm-.24-1.22a.676.676 0 00-.192.165.444.444 0 00-.09.288.48.48 0 00.04.201.58.58 0 00.11.17.557.557 0 00.164.116.448.448 0 00.412-.017.8.8 0 00.185-.13l.1-.122-.729-.672zm.075-.32l-.17-.16a.995.995 0 01-.164-.2.649.649 0 01-.064-.13.435.435 0 01-.03-.155c0-.075.015-.15.044-.218a.537.537 0 01.408-.335.566.566 0 01.506.157.562.562 0 01.014.768.677.677 0 01-.172.139.907.907 0 01-.24.093l-.132.041zm.127-.96a.304.304 0 00-.29.195.317.317 0 00-.024.127c0 .025.005.05.014.072a.607.607 0 00.166.238l.072.067h.028a.624.624 0 00.156-.065.52.52 0 00.115-.091.372.372 0 00.065-.103.338.338 0 00-.005-.237.304.304 0 00-.305-.194l.008-.008zm5.148 1.337v1.159a.143.143 0 01-.043.105.151.151 0 01-.244-.048.143.143 0 01-.01-.057v-2.742a.136.136 0 01.043-.106.145.145 0 01.106-.043h.798c.12-.002.24.021.35.067a.856.856 0 01.475.458.853.853 0 01-.474 1.14.893.893 0 01-.35.067h-.65zm0-1.44v1.138h.653a.653.653 0 00.24-.046.64.64 0 00.187-.125.563.563 0 00.125-.623.571.571 0 00-.317-.3.654.654 0 00-.24-.044h-.648z" fill="#fff"/>
  <path d="M53.006 40.9a.269.269 0 01-.25-.165.257.257 0 01-.019-.104v-2.742a.26.26 0 01.081-.195.266.266 0 01.188-.074h.798c.136 0 .27.026.396.077a.98.98 0 01.322 1.614.999.999 0 01-.322.207c-.126.049-.26.074-.396.074h-.53v1.039a.259.259 0 01-.079.192.269.269 0 01-.19.076zm0-3.04a.036.036 0 00-.024 0v2.761l.028.029.03-.029v-1.276h.77c.104 0 .209-.02.306-.058a.805.805 0 00.24-.156.735.735 0 00.093-.955.8.8 0 00-.652-.328l-.791.012zm.8 1.44h-.772v-1.395h.768a.751.751 0 01.511.197.7.7 0 01.209.49.67.67 0 01-.063.273.685.685 0 01-.15.218.735.735 0 01-.501.209v.007zm-.532-.24h.533c.065 0 .13-.012.19-.037a.521.521 0 00.15-.1.429.429 0 00.099-.144.425.425 0 00-.098-.487.517.517 0 00-.345-.13h-.529v.897zm4.633-1.22c.18.08.342.192.48.332.139.138.251.3.33.48.083.189.125.393.123.6.002.139-.017.278-.055.412-.035.13-.087.254-.156.37a1.436 1.436 0 01-.24.314 1.601 1.601 0 01-.312.24 1.62 1.62 0 01-.37.153 1.562 1.562 0 01-1.504-.394 1.6 1.6 0 01-.24-.314 1.563 1.563 0 010-1.56 1.552 1.552 0 01.92-.71 1.59 1.59 0 01.412-.054c.211 0 .42.045.612.132zm-1.087.279a1.214 1.214 0 00-.66.66 1.2 1.2 0 00-.096.48 1.228 1.228 0 00.756 1.139 1.25 1.25 0 001.356-.264 1.249 1.249 0 00.364-.876 1.249 1.249 0 00-.365-.876 1.25 1.25 0 00-1.356-.264z" fill="#fff"/>
  <path d="M57.305 40.93a1.689 1.689 0 01-.842-.227 1.682 1.682 0 01-.336-.262 1.85 1.85 0 01-.257-.338 1.68 1.68 0 01.257-2.015c.1-.101.213-.19.336-.262.124-.07.257-.125.396-.16a1.693 1.693 0 011.093.072 1.68 1.68 0 01.886.882c.088.205.133.425.132.648a1.614 1.614 0 01-.228.842 1.68 1.68 0 01-.996.768 1.689 1.689 0 01-.441.053zm0-3.092a1.403 1.403 0 00-1.008.418 1.523 1.523 0 00-.22.288 1.477 1.477 0 00-.192.717 1.44 1.44 0 00.415 1.012 1.384 1.384 0 00.626.365 1.402 1.402 0 001.099-.144 1.413 1.413 0 00.708-1.233 1.336 1.336 0 00-.113-.552 1.439 1.439 0 00-1.315-.87zm0 2.79a1.365 1.365 0 01-1.25-.83 1.378 1.378 0 01-.106-.537 1.357 1.357 0 01.828-1.253 1.378 1.378 0 011.502.29 1.368 1.368 0 01-.434 2.222c-.17.073-.353.11-.538.108h-.002zm0-2.487a1.13 1.13 0 00-1.036.684 1.159 1.159 0 000 .877 1.133 1.133 0 00.595.597 1.143 1.143 0 00.88 0 1.128 1.128 0 00.357-1.83 1.117 1.117 0 00-.357-.24 1.08 1.08 0 00-.437-.084l-.002-.005zm2.567-.192a.14.14 0 010-.116.16.16 0 01.14-.09.13.13 0 01.056.011.145.145 0 01.085.082l1.043 2.423.494-1.137-.513-1.173a.14.14 0 010-.116.154.154 0 01.28.002l.39.91.393-.91a.168.168 0 01.081-.08.159.159 0 01.115 0 .163.163 0 01.082.078.14.14 0 010 .116l-.506 1.17.48 1.14 1.053-2.423a.156.156 0 01.079-.082.159.159 0 01.115 0 .144.144 0 01.08.08.13.13 0 010 .115l-1.181 2.737a.154.154 0 01-.149.093.132.132 0 01-.077-.024.137.137 0 01-.057-.07l-.514-1.199-.513 1.2a.143.143 0 01-.137.093.169.169 0 01-.089-.021.144.144 0 01-.057-.072l-1.173-2.737z" fill="#fff"/>
  <path d="M61.177 40.9a.264.264 0 01-.247-.169l-1.178-2.734a.24.24 0 010-.212.263.263 0 01.149-.141.239.239 0 01.199 0 .262.262 0 01.148.146l.936 2.16.362-.836-.48-1.125a.256.256 0 010-.208.259.259 0 01.15-.144.255.255 0 01.2 0 .273.273 0 01.152.146l.278.653.283-.653a.286.286 0 01.147-.144.256.256 0 01.206 0 .269.269 0 01.144.142.24.24 0 010 .21l-.48 1.123.358.838.942-2.16a.285.285 0 01.142-.143.256.256 0 01.206 0 .262.262 0 01.167.25c0 .035-.008.07-.023.102l-1.183 2.738a.24.24 0 01-.11.127.262.262 0 01-.151.038.24.24 0 01-.137-.043.26.26 0 01-.103-.122l-.403-.933-.403.933a.26.26 0 01-.271.16zm.662-1.706l.626 1.44.029.02.031-.019 1.193-2.73.03-.146-.045.113c-.026 0-.034 0-.04.019L62.5 40.566l-.619-1.44.526-1.218c0-.027 0-.031-.017-.036-.017-.005-.034 0-.039.021l-.503 1.161-.5-1.165a.038.038 0 00-.016-.017h-.027l-.014.036.525 1.218-.623 1.44-1.154-2.677c0-.015 0-.017-.017-.02-.017-.002-.04 0-.043.02v.016l1.18 2.735.034.022.026-.022.619-1.446zm3.351 1.59a.144.144 0 01-.098-.048.156.156 0 01-.038-.105v-2.735a.13.13 0 01.045-.108.145.145 0 01.108-.043h1.356a.145.145 0 01.138.092.145.145 0 01.01.059.149.149 0 01-.091.138.142.142 0 01-.057.01h-1.2v1.06h.893a.144.144 0 01.148.147.142.142 0 01-.043.106.153.153 0 01-.105.04h-.893v1.075h1.2a.144.144 0 01.105.044.141.141 0 01.043.103.145.145 0 01-.043.108.136.136 0 01-.105.043l-1.373.014z" fill="#fff"/>
  <path d="M66.57 40.9h-1.387a.269.269 0 01-.25-.274V37.89a.257.257 0 01.085-.197.276.276 0 01.19-.074h1.355a.255.255 0 01.19.08.27.27 0 01-.193.46h-1.089v.835h.773a.239.239 0 01.192.079.26.26 0 01.076.187.254.254 0 01-.079.19.263.263 0 01-.19.076h-.772v.835h1.09a.255.255 0 01.189.08.26.26 0 01.08.186.265.265 0 01-.078.192.24.24 0 01-.182.08zm-1.363-3.04a.039.039 0 00-.026 0v2.756a.035.035 0 000 .026v.128-.12h1.372c.024 0 .029-.017.029-.031l-.029-.027h-1.329v-1.314h1.013a.027.027 0 00.021 0l.084-.125-.084.084h-1.034v-1.315h1.33l.028-.029-.029-.03-1.346-.003zm4.647.748a.857.857 0 01-.055.305.89.89 0 01-.657.533l.688 1.1a.146.146 0 01-.122.219.136.136 0 01-.055-.012.154.154 0 01-.087-.07l-.758-1.23h-.499v1.158a.143.143 0 01-.045.106.151.151 0 01-.244-.048.14.14 0 01-.01-.057v-2.723a.136.136 0 01.043-.106.146.146 0 01.105-.043h.8a.88.88 0 01.35.067.846.846 0 01.547.801zm-1.545-.573v1.137h.65a.653.653 0 00.24-.045.639.639 0 00.188-.125.56.56 0 00-.192-.924.653.653 0 00-.24-.043h-.646z" fill="#fff"/>
  <path d="M69.696 40.9a.3.3 0 01-.08 0 .276.276 0 01-.153-.123l-.72-1.173h-.311v1.039a.265.265 0 01-.271.267.276.276 0 01-.19-.075.26.26 0 01-.08-.192v-2.754a.263.263 0 01.082-.195.266.266 0 01.188-.074h.799a1.039 1.039 0 01.772.341.981.981 0 01.014 1.28 1 1 0 01-.415.286l.602.96a.263.263 0 01-.117.379.24.24 0 01-.12.033zm-1.538-3.04h-.021v2.761l.028.029a.031.031 0 00.024 0v-1.298h.687l.794 1.288s.012.017.019.02h.024c.017-.02.019-.024.012-.039l-.777-1.245.172-.034a.759.759 0 00.437-.25.742.742 0 00-.307-1.17.801.801 0 00-.305-.057l-.787-.005zm.802 1.44h-.77v-1.395h.765a.743.743 0 01.51.197.677.677 0 01.003.974.744.744 0 01-.225.151.736.736 0 01-.283.065v.007zm-.53-.24h.53a.48.48 0 00.34-.137.398.398 0 00.099-.144.424.424 0 000-.346.453.453 0 00-.099-.141.505.505 0 00-.345-.13h-.526v.897zm2.873.2c0 .166.034.329.099.48a1.214 1.214 0 00.66.66c.151.065.314.099.48.099a1.2 1.2 0 00.39-.06 1.01 1.01 0 00.56-.434c.066-.108.114-.225.14-.348h-.724a.136.136 0 01-.103-.046.14.14 0 01-.043-.105c0-.04.016-.076.043-.104a.139.139 0 01.103-.043h.9a.182.182 0 01.113.043.132.132 0 01.045.106 1.528 1.528 0 01-.144.513 1.45 1.45 0 01-.304.408 1.411 1.411 0 01-.972.372 1.572 1.572 0 01-.782-.211 1.583 1.583 0 01-.31-.24 1.498 1.498 0 01-.24-.312 1.682 1.682 0 01-.155-.37 1.552 1.552 0 01-.053-.41 1.535 1.535 0 011.538-1.544 1.526 1.526 0 011.1.46.134.134 0 01.046.106.143.143 0 01-.043.103.151.151 0 01-.103.045.139.139 0 01-.108-.045 1.224 1.224 0 00-.417-.274 1.255 1.255 0 00-1.353.264 1.2 1.2 0 00-.362.888z" fill="#fff"/>
  <path d="M72.546 40.93a1.69 1.69 0 01-.842-.227 1.68 1.68 0 01-.595-.598 1.682 1.682 0 01-.166-1.279c.037-.138.092-.271.164-.395.07-.125.156-.24.256-.34.101-.102.214-.19.336-.265.125-.073.26-.13.398-.17a1.71 1.71 0 011.083.065c.206.085.393.212.549.372a.24.24 0 01.081.191.268.268 0 01-.458.187 1.137 1.137 0 00-1.595 0 1.106 1.106 0 00-.24.358 1.13 1.13 0 00.593 1.48c.253.104.534.117.796.036a.9.9 0 00.494-.391 1.13 1.13 0 00.082-.163h-.574a.26.26 0 01-.19-.081.266.266 0 01.003-.377.27.27 0 01.187-.08h.9a.31.31 0 01.192.073.24.24 0 01.086.201 1.55 1.55 0 01-.158.562 1.502 1.502 0 01-1.382.842zm0-3.094a1.422 1.422 0 00-1.367 1.806 1.416 1.416 0 001.862.957c.145-.056.28-.137.398-.24.235-.221.38-.522.41-.844a.05.05 0 00-.043-.019h-.898l-.026.026.026.032h.883l-.033.146a1.33 1.33 0 01-.156.384 1.129 1.129 0 01-.624.487 1.423 1.423 0 01-.96-.043 1.342 1.342 0 01-.722-.722 1.376 1.376 0 01.295-1.51 1.365 1.365 0 011.476-.29c.17.07.325.172.456.302l.127.084-.087-.081a.038.038 0 000-.024 1.364 1.364 0 00-.48-.336 1.395 1.395 0 00-.54-.115h.003zm2.86 2.948a.144.144 0 01-.099-.048.156.156 0 01-.038-.105v-2.735a.13.13 0 01.046-.108.146.146 0 01.108-.043h1.348a.145.145 0 01.137.093.16.16 0 01.01.058.146.146 0 01-.09.138.142.142 0 01-.057.01h-1.2v1.06h.895a.144.144 0 01.106.042.15.15 0 010 .21.153.153 0 01-.106.042h-.895v1.074h1.2a.144.144 0 01.146.147.145.145 0 01-.089.14.137.137 0 01-.057.01l-1.365.015z" fill="#fff"/>
  <path d="M76.785 40.9h-1.389a.268.268 0 01-.247-.274V37.89a.256.256 0 01.084-.197.274.274 0 01.19-.074h1.348a.255.255 0 01.19.08.276.276 0 010 .38.264.264 0 01-.19.08h-1.092v.835h.775a.239.239 0 01.192.079.26.26 0 01.077.187.255.255 0 01-.08.19.264.264 0 01-.189.076h-.775v.835h1.092a.255.255 0 01.19.08.26.26 0 01.076.186.265.265 0 01-.077.192.243.243 0 01-.175.08zm-1.362-3.04a.046.046 0 00-.03 0v2.756a.05.05 0 000 .027v.127-.12h1.378c.024 0 .026-.017.026-.031l-.026-.027h-1.332v-1.314h1.015a.04.04 0 00.022 0l.084-.125-.087.084H75.44v-1.315h1.332l.026-.029-.026-.03-1.348-.003zm3.099.482l-.24-.357a.136.136 0 01-.026-.072.177.177 0 01.055-.142.105.105 0 01.072-.026h.012l.048.014h.012l.012.014v.012l1.66 2.366v-2.289a.14.14 0 01.043-.105.145.145 0 01.108-.046.14.14 0 01.108.046.149.149 0 01.041.105v2.74c0 .035-.012.07-.036.096a.144.144 0 01-.086.05h-.027a.151.151 0 01-.112-.045v-.015l-1.66-2.37v2.289a.143.143 0 01-.044.105.15.15 0 01-.244-.048.143.143 0 01-.01-.057v-2.702a.142.142 0 01.043-.105.145.145 0 01.106-.043h.012l.048.014c.017.013.032.03.04.05.01.021.015.044.015.068l.05.453z" fill="#fff"/>
  <path d="M80.312 40.9a.268.268 0 01-.197-.082l-.024-.031-1.44-2.066v1.92a.262.262 0 01-.268.267.276.276 0 01-.19-.076.26.26 0 01-.079-.192v-2.735a.26.26 0 01.08-.191.269.269 0 01.189-.077h.082l.05.012.034.029.014.012c.021.018.039.04.053.064l1.44 2.044V37.88a.273.273 0 01.217-.267.268.268 0 01.322.267v2.74a.265.265 0 01-.22.264l-.063.016zm-1.68-2.596l1.64 2.339c.002.005.007.01.012.012a.035.035 0 00.018.005h.022V37.9a.026.026 0 000-.023h-.04v2.691l-1.64-2.334-.012.07zm-.292 0v2.327l.029.029a.027.027 0 00.021 0v-2.272l-.05-.084zm.014-.432v.029l.036.055-.021-.087-.015.003zm7.884.41a.151.151 0 01-.041.103.168.168 0 01-.108.046.142.142 0 01-.106-.043 1.262 1.262 0 00-.887-.37 1.2 1.2 0 00-.48.099 1.222 1.222 0 00-.662.662 1.226 1.226 0 00-.096.48 1.268 1.268 0 00.35.878c.112.114.245.206.391.27a1.2 1.2 0 00.492.101 1.231 1.231 0 00.897-.357.159.159 0 01.106-.046.146.146 0 01.138.09.12.12 0 01.01.057.146.146 0 01-.04.105 1.552 1.552 0 01-.516.343c-.187.073-.385.11-.586.11a1.557 1.557 0 01-1.087-.451 1.586 1.586 0 01-.24-.311 1.553 1.553 0 01-.007-1.543c.067-.115.148-.221.24-.316a1.617 1.617 0 01.684-.401 1.53 1.53 0 011.008.058c.192.079.367.195.513.342.02.028.029.06.027.094z" fill="#fff"/>
  <path d="M85.09 40.93a1.68 1.68 0 01-.834-.227 1.677 1.677 0 01-.595-.597 1.699 1.699 0 01-.225-.84 1.648 1.648 0 01.468-1.15 1.59 1.59 0 01.736-.444 1.679 1.679 0 011.638.433.261.261 0 01.08.189c0 .07-.027.136-.075.187a.29.29 0 01-.3.064.24.24 0 01-.086-.061 1.124 1.124 0 00-1.595 1.585 1.103 1.103 0 00.808.336 1.081 1.081 0 00.79-.314.281.281 0 01.189-.08c.07 0 .137.026.19.073a.254.254 0 01.081.197.27.27 0 01-.077.187c-.157.16-.347.286-.556.37a1.71 1.71 0 01-.636.093zm0-3.094c-.131 0-.263.018-.39.055a1.31 1.31 0 00-.346.149c-.104.067-.2.148-.283.24a1.419 1.419 0 00-.352 1.372 1.44 1.44 0 00.364.63 1.42 1.42 0 00.626.365 1.44 1.44 0 001.397-.366l.084-.125-.084.086h-.046a1.286 1.286 0 01-.456.3 1.438 1.438 0 01-1.053-.02 1.333 1.333 0 01-.823-1.24 1.37 1.37 0 01.106-.534 1.368 1.368 0 012.229-.427h.043v-.037a1.41 1.41 0 00-.48-.319 1.388 1.388 0 00-.528-.13h-.007zm4.35.004c.18.078.344.191.48.332a1.483 1.483 0 01.456 1.08 1.558 1.558 0 01-.451 1.096 1.536 1.536 0 01-.684.394 1.5 1.5 0 01-.823 0 1.623 1.623 0 01-.37-.154 1.554 1.554 0 01-.704-.927 1.63 1.63 0 010-.822 1.565 1.565 0 01.396-.679 1.505 1.505 0 011.091-.454c.21.002.418.048.61.135zm-1.089.279a1.219 1.219 0 00-.657.66 1.23 1.23 0 000 .96c.123.297.36.535.657.659a1.23 1.23 0 001.356-.264 1.228 1.228 0 00.362-.876 1.198 1.198 0 00-.096-.48 1.251 1.251 0 00-.247-.393 1.286 1.286 0 00-.396-.264 1.217 1.217 0 00-.48-.098 1.233 1.233 0 00-.499.096z" fill="#fff"/>
  <path d="M88.838 40.93a1.69 1.69 0 01-.842-.227 1.678 1.678 0 01-.76-.998 1.73 1.73 0 010-.886 1.73 1.73 0 01.165-.395 1.68 1.68 0 01.993-.766 1.68 1.68 0 011.622.427 1.658 1.658 0 01.49 1.176 1.65 1.65 0 01-.49 1.18 1.638 1.638 0 01-.734.43 1.71 1.71 0 01-.444.06zm0-3.092a1.363 1.363 0 00-.72.194 1.439 1.439 0 00-.508.512 1.398 1.398 0 00-.192.717 1.42 1.42 0 00.192.722c.061.105.136.203.22.29a1.426 1.426 0 002.241-.29c.06-.108.11-.222.144-.34a1.44 1.44 0 00-.062-.934 1.439 1.439 0 00-1.315-.87zm0 2.79a1.331 1.331 0 01-.535-.108 1.367 1.367 0 111.5-2.222 1.348 1.348 0 01.398.962c.001.185-.035.368-.106.538a1.368 1.368 0 01-1.255.83h-.002zm0-2.487a1.119 1.119 0 00-1.036.683 1.13 1.13 0 00.595 1.476 1.137 1.137 0 00.878 0c.27-.112.487-.327.6-.598a1.159 1.159 0 000-.878 1.174 1.174 0 00-.24-.355 1.152 1.152 0 00-.36-.24 1.061 1.061 0 00-.434-.084l-.003-.005zm4.657.467a.856.856 0 01-.053.305.841.841 0 01-.149.24.888.888 0 01-.511.293l.689 1.1a.134.134 0 01.012.12.144.144 0 01-.077.087.14.14 0 01-.11 0 .151.151 0 01-.09-.07l-.755-1.23h-.501v1.158a.143.143 0 01-.043.106.15.15 0 01-.212 0 .143.143 0 01-.045-.105v-2.723a.138.138 0 01.045-.106.145.145 0 01.106-.043h.804a.912.912 0 01.635.25.846.846 0 01.262.618h-.007zm-1.545-.573v1.137h.655a.634.634 0 00.24-.045.65.65 0 00.19-.125.563.563 0 00.17-.4.56.56 0 00-.362-.523.656.656 0 00-.24-.044h-.653z" fill="#fff"/>
  <path d="M93.339 40.9a.338.338 0 01-.082 0 .263.263 0 01-.15-.123l-.72-1.173h-.315v1.039a.26.26 0 01-.079.192.276.276 0 01-.44-.088.262.262 0 01-.02-.104v-2.754a.261.261 0 01.08-.195.276.276 0 01.19-.074h.802a1.039 1.039 0 01.72.285c.092.09.166.197.218.315a.973.973 0 01-.566 1.31l.604.96a.273.273 0 01-.033.316.255.255 0 01-.087.062.24.24 0 01-.122.031zM91.8 37.86a.03.03 0 00-.024 0v2.761l.031.029a.025.025 0 00.011.002c.004 0 .007 0 .01-.002v-1.298h.69l.791 1.288a.038.038 0 00.022.02h.024c.017-.02.019-.024 0-.039l-.778-1.245.173-.034a.748.748 0 00.434-.25.72.72 0 00.173-.479.75.75 0 00-.77-.75l-.787-.003zm.799 1.44h-.77v-1.395h.775a.733.733 0 01.51.197.658.658 0 01.211.49.67.67 0 01-.205.484.774.774 0 01-.516.216l-.005.007zm-.53-.24h.535c.066 0 .13-.012.192-.037a.465.465 0 00.25-.245.425.425 0 00-.1-.487.48.48 0 00-.153-.093.508.508 0 00-.19-.053h-.525l-.01.914zm3.084.412v1.159a.143.143 0 01-.044.105.149.149 0 01-.105.044.142.142 0 01-.106-.044.133.133 0 01-.045-.105v-2.742a.131.131 0 01.045-.106.142.142 0 01.106-.043h.796a.913.913 0 01.639.248.865.865 0 01.265.613.854.854 0 01-.551.804.915.915 0 01-.353.067h-.647zm0-1.44v1.138h.65a.634.634 0 00.24-.046.65.65 0 00.19-.125.562.562 0 00-.194-.924.635.635 0 00-.241-.043h-.645z" fill="#fff"/>
  <path d="M95.004 40.9a.264.264 0 01-.19-.077.262.262 0 01-.081-.192v-2.742a.261.261 0 01.081-.195.276.276 0 01.19-.074h.796c.136 0 .27.026.396.077a.959.959 0 01.542.52 1.012 1.012 0 010 .785.978.978 0 01-.542.516c-.126.049-.26.074-.396.074h-.527v1.039a.269.269 0 01-.269.269zm0-3.04a.027.027 0 00-.024 0v2.761l.031.029a.025.025 0 00.01.002c.005 0 .008 0 .012-.002v-1.298h.767a.803.803 0 00.307-.058.721.721 0 00.403-.396.698.698 0 00.06-.295.722.722 0 00-.06-.295.79.79 0 00-.163-.24.778.778 0 00-.24-.158.823.823 0 00-.307-.057l-.796.007zm.799 1.44h-.77v-1.395h.765a.733.733 0 01.511.197.721.721 0 01.154.216.697.697 0 010 .54.679.679 0 01-.15.218.772.772 0 01-.51.216v.007zm-.53-.24h.53a.497.497 0 00.192-.037.465.465 0 00.25-.245.415.415 0 00.033-.17.414.414 0 00-.135-.316.517.517 0 00-.346-.13h-.524v.897z" fill="#fff"/>
</svg>
