<svg fill="none" xmlns="http://www.w3.org/2000/svg" viewBox="0 0 24 24">
  <g clip-path="url(#qKUv0gZl3Aq-a)">
    <path d="M12 16.5a4.5 4.5 0 110-9 4.5 4.5 0 010 9zm0 1.5a6 6 0 100-12 6 6 0 000 12zm0-18a.75.75 0 01.75.75v3a.75.75 0 11-1.5 0v-3A.75.75 0 0112 0zm0 19.5a.75.75 0 01.75.75v3a.75.75 0 11-1.5 0v-3a.75.75 0 01.75-.75zM24 12a.75.75 0 01-.75.75h-3a.75.75 0 110-1.5h3A.75.75 0 0124 12zM4.5 12a.75.75 0 01-.75.75h-3a.75.75 0 110-1.5h3a.75.75 0 01.75.75zm15.985-8.486a.75.75 0 010 1.061l-2.12 2.122a.75.75 0 11-1.061-1.061l2.121-2.122a.75.75 0 011.06 0zM6.696 17.304a.75.75 0 010 1.06l-2.121 2.121a.75.75 0 01-1.06-1.06l2.12-2.121a.75.75 0 011.061 0zm13.79 3.181a.75.75 0 01-1.061 0l-2.121-2.12a.75.75 0 011.06-1.061l2.121 2.121a.75.75 0 010 1.06zM6.695 6.698a.75.75 0 01-1.06 0L3.514 4.574a.75.75 0 111.061-1.06l2.121 2.12a.75.75 0 010 1.063z" fill="#000"/>
  </g>
  <defs>
    <clipPath id="qKUv0gZl3Aq-a">
      <path fill="#fff" d="M0 0h24v24H0z"/>
    </clipPath>
  </defs>
</svg>
